<svg width="1394" height="265" viewBox="0 0 1394 265" fill="none" xmlns="http://www.w3.org/2000/svg">
<g filter="url(#filter0_d)">
<rect x="6" y="6" width="1300" height="251" rx="10" fill="#5C4E5F"/>
</g>
<path d="M491.364 55.4391C270.815 11.9985 5.99999 55.4391 6 247.176C6 252.693 10.47 257.166 15.9863 257.169L1295.99 257.994C1301.52 257.997 1306 253.519 1306 247.994V217.555C1136.7 246.516 680.176 92.6285 491.364 55.4391Z" fill="white"/>
<g filter="url(#filter1_dd)">
<path d="M436.014 250.558C386.657 231.4 373.185 188.689 373.501 159.58C373.669 144.088 390.513 140.136 405.92 141.766C422.796 143.552 440.851 140.263 450.691 137.335C458.402 136.79 467.688 127.856 471.368 123.458C500.043 106.453 517.2 143.472 507.642 158.432C505.482 161.811 497.043 172.135 493.804 177.563L436.014 250.558Z" fill="#F9784F"/>
<path d="M436.014 250.558C386.657 231.4 373.185 188.689 373.501 159.58C373.669 144.088 390.513 140.136 405.92 141.766C422.796 143.552 440.851 140.263 450.691 137.335C458.402 136.79 467.688 127.856 471.368 123.458C500.043 106.453 517.2 143.472 507.642 158.432C505.482 161.811 497.043 172.135 493.804 177.563L436.014 250.558Z" stroke="#707070"/>
</g>
<g filter="url(#filter2_dd)">
<path d="M608.175 248.723C579.288 237.5 568.429 214.434 566.069 195.563C564.145 180.18 581.104 175.227 596.601 174.796C605.134 174.558 613.202 172.939 618.182 171.456C623.44 171.084 629.771 164.988 632.28 161.986C651.831 150.381 663.529 175.644 657.012 185.853C655.54 188.16 649.786 195.205 647.577 198.909L608.175 248.723Z" fill="#129ECB"/>
<path d="M608.175 248.723C579.288 237.5 568.429 214.434 566.069 195.563C564.145 180.18 581.104 175.227 596.601 174.796C605.134 174.558 613.202 172.939 618.182 171.456C623.44 171.084 629.771 164.988 632.28 161.986C651.831 150.381 663.529 175.644 657.012 185.853C655.54 188.16 649.786 195.205 647.577 198.909L608.175 248.723Z" stroke="#707070"/>
</g>
<g filter="url(#filter3_d)">
<path d="M459.84 169.467C459.324 151.966 466.198 119.192 491.057 135.773C531.796 162.947 459.84 169.467 459.84 169.467Z" fill="white"/>
</g>
<g filter="url(#filter4_d)">
<path d="M624.312 192.063C623.959 180.086 628.664 157.657 645.676 169.004C673.556 187.6 624.312 192.063 624.312 192.063Z" fill="white"/>
</g>
<g filter="url(#filter5_dd)">
<path d="M238.253 250.558C164.907 222.203 149.673 155.862 153.556 116.838C155.086 101.464 171.918 98.0684 187.041 101.231C212.613 106.579 242.842 101.359 258.268 96.7891C268.782 96.0483 281.445 83.916 286.463 77.9424C325.565 54.8471 348.961 105.123 335.927 125.44C332.982 130.03 321.475 144.051 317.058 151.423L238.253 250.558Z" fill="#361643"/>
<path d="M238.253 250.558C164.907 222.203 149.673 155.862 153.556 116.838C155.086 101.464 171.918 98.0684 187.041 101.231C212.613 106.579 242.842 101.359 258.268 96.7891C268.782 96.0483 281.445 83.916 286.463 77.9424C325.565 54.8471 348.961 105.123 335.927 125.44C332.982 130.03 321.475 144.051 317.058 151.423L238.253 250.558Z" stroke="#707070"/>
</g>
<g filter="url(#filter6_d)">
<path d="M280.841 137.8C275.672 115.991 275.821 73.1241 311.273 87.4888C369.373 111.03 280.841 137.8 280.841 137.8Z" fill="white"/>
</g>
<g filter="url(#filter7_d)">
<path d="M243.49 230.44L242.2 231.461C241.832 230.894 241.677 230.34 241.737 229.799C241.796 229.259 242.115 228.66 242.694 228.003C243.221 227.407 243.684 227.025 244.084 226.859C244.481 226.691 244.841 226.644 245.164 226.72C245.486 226.789 245.937 227.08 246.518 227.593L248.067 228.984C248.511 229.376 248.858 229.645 249.107 229.791C249.356 229.932 249.652 230.05 249.997 230.145L248.83 231.468C248.71 231.425 248.541 231.352 248.321 231.248C248.222 231.201 248.156 231.17 248.122 231.157C248.143 231.582 248.094 231.973 247.976 232.331C247.857 232.69 247.668 233.016 247.407 233.311C246.948 233.832 246.445 234.118 245.896 234.171C245.351 234.22 244.862 234.054 244.43 233.674C244.145 233.422 243.951 233.129 243.849 232.797C243.744 232.462 243.741 232.12 243.839 231.772C243.937 231.418 244.146 230.971 244.465 230.429C244.899 229.7 245.172 229.17 245.283 228.839L245.15 228.722C244.893 228.495 244.654 228.398 244.434 228.429C244.211 228.458 243.945 228.649 243.634 229.001C243.424 229.239 243.308 229.467 243.285 229.684C243.26 229.899 243.328 230.151 243.49 230.44ZM246.154 229.608C246.06 229.83 245.889 230.161 245.641 230.602C245.393 231.044 245.256 231.355 245.232 231.537C245.202 231.82 245.282 232.046 245.472 232.214C245.659 232.379 245.883 232.452 246.143 232.433C246.402 232.414 246.627 232.296 246.818 232.08C247.03 231.839 247.154 231.539 247.188 231.18C247.21 230.912 247.157 230.675 247.027 230.471C246.943 230.335 246.741 230.126 246.421 229.843L246.154 229.608ZM247.897 222.334L248.964 223.275L248.158 224.189L250.195 225.986C250.608 226.35 250.856 226.555 250.94 226.6C251.023 226.64 251.114 226.65 251.211 226.628C251.312 226.604 251.401 226.548 251.48 226.459C251.589 226.335 251.704 226.118 251.825 225.807L252.964 226.608C252.823 227.037 252.579 227.448 252.232 227.842C252.019 228.083 251.788 228.265 251.538 228.389C251.284 228.51 251.054 228.56 250.846 228.54C250.637 228.514 250.408 228.422 250.158 228.264C249.977 228.155 249.651 227.893 249.178 227.475L246.974 225.531L246.432 226.146L245.366 225.205L245.907 224.591L244.903 223.705L245.306 221.674L247.091 223.248L247.897 222.334ZM250.9 223.882C250.455 223.49 250.122 223.001 249.899 222.416C249.677 221.83 249.632 221.241 249.766 220.648C249.903 220.051 250.189 219.506 250.626 219.011C251.3 218.246 252.102 217.839 253.032 217.79C253.958 217.737 254.8 218.046 255.559 218.715C256.324 219.39 256.74 220.197 256.808 221.137C256.876 222.071 256.579 222.913 255.918 223.662C255.51 224.125 255.014 224.476 254.433 224.713C253.854 224.947 253.266 224.996 252.67 224.859C252.071 224.72 251.481 224.394 250.9 223.882ZM252.18 222.574C252.682 223.016 253.171 223.236 253.647 223.233C254.124 223.23 254.516 223.054 254.824 222.705C255.132 222.356 255.256 221.946 255.197 221.476C255.14 221.003 254.858 220.543 254.35 220.095C253.855 219.658 253.369 219.441 252.893 219.444C252.419 219.444 252.028 219.618 251.72 219.967C251.412 220.317 251.287 220.728 251.343 221.201C251.4 221.674 251.679 222.132 252.18 222.574ZM253.885 215.546L254.972 214.313L255.663 214.922C255.515 214.007 255.711 213.246 256.248 212.636C256.534 212.313 256.848 212.091 257.191 211.97C257.534 211.85 257.908 211.832 258.312 211.918C258.238 211.458 258.248 211.04 258.342 210.666C258.435 210.291 258.611 209.958 258.868 209.666C259.196 209.294 259.549 209.047 259.928 208.925C260.304 208.799 260.694 208.802 261.098 208.932C261.395 209.031 261.784 209.293 262.267 209.718L265.499 212.569L264.319 213.907L261.43 211.358C260.928 210.916 260.564 210.676 260.337 210.64C260.037 210.595 259.774 210.702 259.547 210.959C259.382 211.146 259.284 211.373 259.253 211.638C259.221 211.904 259.285 212.172 259.442 212.441C259.597 212.707 259.912 213.05 260.388 213.47L262.816 215.611L261.636 216.949L258.866 214.505C258.374 214.071 258.035 213.815 257.851 213.737C257.666 213.658 257.494 213.639 257.334 213.679C257.178 213.716 257.024 213.82 256.873 213.991C256.691 214.198 256.582 214.432 256.548 214.695C256.514 214.958 256.569 215.219 256.714 215.476C256.862 215.731 257.179 216.072 257.664 216.501L260.121 218.667L258.941 220.005L253.885 215.546ZM264.821 210.43L265.8 208.907C266.111 209.08 266.411 209.139 266.702 209.085C266.989 209.028 267.271 208.842 267.548 208.528C267.854 208.182 268.02 207.866 268.047 207.579C268.061 207.383 267.994 207.22 267.845 207.088C267.743 206.999 267.631 206.956 267.509 206.961C267.386 206.972 267.196 207.069 266.938 207.253C265.748 208.122 264.927 208.614 264.476 208.73C263.85 208.889 263.295 208.754 262.809 208.326C262.371 207.94 262.156 207.442 262.162 206.833C262.169 206.224 262.493 205.556 263.134 204.829C263.744 204.137 264.31 203.722 264.832 203.585C265.355 203.447 265.892 203.509 266.445 203.771L265.566 205.239C265.321 205.119 265.08 205.089 264.841 205.149C264.604 205.206 264.363 205.374 264.117 205.653C263.806 206.006 263.633 206.301 263.597 206.541C263.577 206.704 263.623 206.834 263.734 206.932C263.829 207.016 263.949 207.043 264.094 207.013C264.289 206.971 264.781 206.666 265.57 206.097C266.362 205.526 267 205.203 267.484 205.128C267.968 205.058 268.423 205.211 268.848 205.586C269.311 205.995 269.539 206.54 269.531 207.221C269.522 207.902 269.184 208.622 268.515 209.38C267.907 210.069 267.286 210.492 266.652 210.648C266.02 210.802 265.409 210.729 264.821 210.43Z" fill="white"/>
</g>
<g filter="url(#filter8_d)">
<path d="M433.798 236.499L432.806 237.284C432.522 236.847 432.403 236.421 432.449 236.005C432.494 235.59 432.74 235.129 433.185 234.624C433.59 234.165 433.947 233.872 434.255 233.744C434.56 233.614 434.837 233.578 435.085 233.636C435.333 233.69 435.68 233.914 436.127 234.308L437.318 235.378C437.66 235.68 437.927 235.887 438.118 235.999C438.31 236.107 438.538 236.198 438.803 236.271L437.905 237.289C437.813 237.256 437.683 237.199 437.514 237.12C437.438 237.083 437.387 237.06 437.361 237.05C437.377 237.377 437.339 237.678 437.248 237.953C437.157 238.229 437.011 238.48 436.811 238.707C436.458 239.107 436.07 239.328 435.649 239.368C435.229 239.406 434.853 239.278 434.521 238.985C434.301 238.792 434.152 238.567 434.074 238.311C433.993 238.053 433.991 237.791 434.066 237.523C434.141 237.251 434.302 236.906 434.548 236.49C434.882 235.929 435.091 235.521 435.177 235.267L435.074 235.177C434.877 235.002 434.693 234.927 434.524 234.952C434.353 234.974 434.147 235.121 433.908 235.391C433.747 235.575 433.657 235.75 433.64 235.917C433.621 236.082 433.673 236.276 433.798 236.499ZM435.847 235.858C435.775 236.029 435.643 236.284 435.452 236.623C435.261 236.963 435.156 237.202 435.137 237.342C435.114 237.56 435.176 237.734 435.322 237.863C435.466 237.99 435.638 238.046 435.838 238.031C436.038 238.016 436.211 237.926 436.357 237.76C436.521 237.574 436.616 237.344 436.642 237.067C436.66 236.861 436.618 236.679 436.518 236.522C436.454 236.417 436.299 236.256 436.052 236.039L435.847 235.858ZM437.188 230.263L438.008 230.987L437.388 231.69L438.955 233.072C439.273 233.352 439.464 233.509 439.528 233.545C439.592 233.575 439.662 233.582 439.737 233.566C439.814 233.547 439.883 233.504 439.943 233.436C440.027 233.34 440.116 233.173 440.209 232.935L441.085 233.551C440.977 233.88 440.789 234.197 440.522 234.499C440.358 234.685 440.18 234.825 439.988 234.92C439.793 235.013 439.616 235.052 439.456 235.037C439.295 235.017 439.119 234.946 438.927 234.824C438.788 234.741 438.537 234.539 438.173 234.218L436.477 232.722L436.061 233.195L435.24 232.471L435.657 231.999L434.884 231.317L435.195 229.755L436.568 230.966L437.188 230.263ZM439.497 231.454C439.156 231.152 438.899 230.776 438.728 230.326C438.557 229.875 438.522 229.422 438.625 228.966C438.73 228.507 438.951 228.087 439.287 227.706C439.806 227.118 440.423 226.805 441.137 226.767C441.85 226.727 442.498 226.964 443.081 227.479C443.67 227.998 443.99 228.619 444.042 229.342C444.094 230.061 443.866 230.708 443.358 231.284C443.044 231.641 442.663 231.91 442.215 232.093C441.77 232.273 441.318 232.31 440.859 232.205C440.398 232.098 439.944 231.848 439.497 231.454ZM440.483 230.447C440.868 230.788 441.244 230.957 441.611 230.954C441.978 230.952 442.279 230.817 442.516 230.548C442.753 230.28 442.849 229.965 442.803 229.603C442.759 229.239 442.542 228.885 442.151 228.54C441.771 228.205 441.397 228.038 441.03 228.04C440.666 228.04 440.365 228.174 440.128 228.442C439.892 228.711 439.795 229.027 439.839 229.391C439.882 229.755 440.097 230.107 440.483 230.447ZM441.794 225.041L442.63 224.093L443.161 224.561C443.048 223.858 443.198 223.272 443.611 222.803C443.831 222.554 444.073 222.383 444.337 222.291C444.601 222.198 444.888 222.184 445.199 222.25C445.142 221.896 445.15 221.575 445.222 221.287C445.294 220.999 445.429 220.743 445.627 220.518C445.879 220.232 446.151 220.042 446.442 219.948C446.731 219.851 447.031 219.853 447.342 219.954C447.57 220.029 447.87 220.231 448.241 220.558L450.728 222.751L449.82 223.78L447.597 221.82C447.212 221.48 446.931 221.295 446.757 221.267C446.526 221.233 446.324 221.315 446.149 221.513C446.022 221.657 445.947 221.831 445.923 222.035C445.899 222.24 445.947 222.446 446.069 222.652C446.188 222.857 446.43 223.121 446.796 223.444L448.664 225.091L447.756 226.12L445.625 224.24C445.247 223.907 444.986 223.71 444.844 223.649C444.702 223.589 444.57 223.574 444.447 223.605C444.327 223.633 444.208 223.714 444.092 223.845C443.952 224.004 443.869 224.185 443.842 224.387C443.816 224.589 443.858 224.789 443.97 224.988C444.084 225.184 444.327 225.446 444.701 225.776L446.59 227.442L445.683 228.471L441.794 225.041ZM450.206 221.106L450.959 219.935C451.198 220.067 451.429 220.113 451.653 220.071C451.874 220.027 452.091 219.884 452.304 219.643C452.539 219.377 452.667 219.133 452.687 218.913C452.699 218.762 452.647 218.636 452.532 218.535C452.454 218.466 452.368 218.434 452.273 218.437C452.179 218.445 452.033 218.52 451.834 218.662C450.919 219.331 450.288 219.709 449.941 219.798C449.459 219.92 449.032 219.817 448.658 219.487C448.322 219.19 448.156 218.807 448.161 218.339C448.166 217.87 448.415 217.357 448.908 216.797C449.378 216.265 449.813 215.946 450.215 215.84C450.616 215.734 451.03 215.782 451.455 215.984L450.779 217.113C450.591 217.021 450.405 216.998 450.221 217.044C450.039 217.087 449.854 217.217 449.664 217.432C449.425 217.703 449.292 217.93 449.264 218.114C449.249 218.239 449.284 218.34 449.37 218.415C449.443 218.48 449.535 218.501 449.647 218.477C449.797 218.445 450.176 218.21 450.782 217.773C451.391 217.334 451.882 217.085 452.254 217.027C452.627 216.974 452.977 217.091 453.304 217.38C453.66 217.694 453.835 218.113 453.829 218.637C453.823 219.161 453.562 219.715 453.047 220.298C452.58 220.828 452.102 221.153 451.614 221.274C451.128 221.392 450.659 221.336 450.206 221.106Z" fill="white"/>
</g>
<g filter="url(#filter9_d)">
<path d="M606.869 236.915L606.076 237.544C605.849 237.194 605.754 236.853 605.79 236.521C605.827 236.188 606.023 235.82 606.38 235.416C606.703 235.049 606.989 234.814 607.235 234.712C607.479 234.608 607.701 234.579 607.899 234.626C608.098 234.669 608.375 234.848 608.733 235.163L609.686 236.019C609.959 236.26 610.173 236.426 610.326 236.516C610.479 236.602 610.662 236.675 610.874 236.734L610.155 237.548C610.082 237.521 609.977 237.476 609.842 237.413C609.782 237.383 609.741 237.365 609.72 237.357C609.733 237.618 609.703 237.859 609.63 238.079C609.557 238.3 609.44 238.501 609.28 238.682C608.998 239.003 608.688 239.179 608.35 239.211C608.014 239.241 607.714 239.139 607.448 238.905C607.272 238.75 607.153 238.57 607.09 238.366C607.026 238.159 607.024 237.949 607.084 237.735C607.144 237.517 607.273 237.242 607.47 236.908C607.737 236.46 607.904 236.134 607.973 235.93L607.891 235.858C607.733 235.718 607.586 235.658 607.45 235.678C607.313 235.696 607.149 235.813 606.958 236.03C606.829 236.176 606.757 236.316 606.743 236.45C606.728 236.582 606.77 236.737 606.869 236.915ZM608.509 236.403C608.451 236.54 608.346 236.744 608.193 237.015C608.04 237.287 607.956 237.478 607.941 237.59C607.923 237.765 607.972 237.904 608.089 238.007C608.204 238.109 608.342 238.153 608.502 238.142C608.661 238.13 608.8 238.057 608.917 237.925C609.048 237.776 609.124 237.591 609.145 237.371C609.159 237.206 609.126 237.06 609.046 236.934C608.994 236.851 608.87 236.722 608.673 236.548L608.509 236.403ZM609.582 231.927L610.238 232.506L609.742 233.068L610.996 234.174C611.249 234.398 611.402 234.524 611.454 234.552C611.505 234.577 611.561 234.583 611.621 234.57C611.683 234.555 611.738 234.52 611.786 234.465C611.853 234.389 611.924 234.255 611.999 234.064L612.699 234.557C612.613 234.821 612.462 235.074 612.249 235.316C612.118 235.465 611.976 235.577 611.822 235.653C611.666 235.727 611.524 235.758 611.396 235.746C611.267 235.73 611.126 235.673 610.973 235.576C610.862 235.509 610.66 235.348 610.369 235.091L609.013 233.895L608.68 234.272L608.023 233.694L608.357 233.316L607.739 232.771L607.987 231.521L609.085 232.49L609.582 231.927ZM611.429 232.88C611.156 232.638 610.951 232.338 610.814 231.977C610.677 231.617 610.649 231.254 610.731 230.889C610.815 230.522 610.992 230.186 611.261 229.882C611.676 229.411 612.169 229.161 612.741 229.13C613.311 229.098 613.829 229.288 614.296 229.7C614.767 230.115 615.023 230.612 615.065 231.19C615.107 231.765 614.924 232.283 614.518 232.744C614.266 233.029 613.961 233.245 613.603 233.391C613.247 233.535 612.885 233.565 612.519 233.481C612.15 233.395 611.787 233.195 611.429 232.88ZM612.217 232.075C612.526 232.347 612.827 232.482 613.12 232.48C613.413 232.478 613.655 232.37 613.844 232.155C614.034 231.94 614.11 231.688 614.073 231.399C614.039 231.108 613.865 230.825 613.552 230.549C613.248 230.28 612.949 230.147 612.656 230.149C612.364 230.148 612.123 230.256 611.934 230.471C611.745 230.685 611.667 230.938 611.702 231.23C611.737 231.521 611.909 231.802 612.217 232.075ZM613.266 227.75L613.935 226.991L614.36 227.365C614.27 226.803 614.39 226.334 614.72 225.959C614.896 225.76 615.09 225.623 615.301 225.549C615.512 225.475 615.742 225.464 615.991 225.517C615.945 225.234 615.951 224.977 616.009 224.746C616.066 224.516 616.174 224.311 616.333 224.131C616.534 223.903 616.752 223.751 616.985 223.675C617.216 223.598 617.456 223.599 617.705 223.68C617.888 223.74 618.127 223.901 618.424 224.163L620.413 225.918L619.687 226.741L617.909 225.172C617.601 224.9 617.376 224.753 617.237 224.73C617.052 224.703 616.89 224.769 616.751 224.927C616.649 225.042 616.589 225.181 616.569 225.345C616.55 225.509 616.589 225.673 616.686 225.839C616.781 226.002 616.975 226.213 617.268 226.472L618.762 227.79L618.036 228.613L616.331 227.109C616.029 226.842 615.82 226.684 615.707 226.636C615.593 226.588 615.487 226.576 615.389 226.601C615.292 226.623 615.198 226.687 615.105 226.793C614.993 226.92 614.926 227.064 614.905 227.226C614.884 227.388 614.918 227.548 615.007 227.707C615.098 227.863 615.293 228.074 615.592 228.337L617.103 229.67L616.377 230.494L613.266 227.75ZM619.996 224.602L620.599 223.664C620.79 223.77 620.975 223.807 621.154 223.773C621.33 223.738 621.504 223.624 621.674 223.431C621.862 223.218 621.964 223.023 621.981 222.847C621.99 222.727 621.949 222.626 621.857 222.545C621.794 222.49 621.725 222.464 621.65 222.466C621.575 222.473 621.458 222.533 621.299 222.646C620.567 223.181 620.062 223.484 619.784 223.555C619.399 223.653 619.057 223.57 618.758 223.306C618.488 223.069 618.356 222.762 618.36 222.388C618.364 222.013 618.563 221.602 618.958 221.155C619.333 220.729 619.682 220.474 620.003 220.389C620.324 220.304 620.655 220.342 620.996 220.504L620.454 221.407C620.304 221.333 620.155 221.315 620.008 221.352C619.863 221.387 619.714 221.49 619.563 221.662C619.371 221.879 619.265 222.061 619.243 222.208C619.23 222.308 619.259 222.389 619.327 222.449C619.386 222.501 619.459 222.517 619.549 222.499C619.669 222.473 619.972 222.285 620.457 221.935C620.944 221.584 621.337 221.385 621.635 221.338C621.933 221.296 622.213 221.39 622.474 221.621C622.759 221.872 622.899 222.207 622.894 222.626C622.889 223.046 622.681 223.489 622.269 223.955C621.895 224.379 621.513 224.639 621.123 224.736C620.734 224.83 620.358 224.786 619.996 224.602Z" fill="white"/>
</g>
<path d="M555.099 251.175V240.438H556.52V245.762L561.852 240.438H563.778L559.273 244.788L563.976 251.175H562.101L558.277 245.74L556.52 247.454V251.175H555.099ZM565.001 241.954V240.438H566.319V241.954H565.001ZM565.001 251.175V243.396H566.319V251.175H565.001ZM573.38 251.175V250.193C572.887 250.965 572.162 251.351 571.205 251.351C570.584 251.351 570.013 251.18 569.491 250.838C568.973 250.496 568.57 250.02 568.282 249.41C567.999 248.794 567.857 248.089 567.857 247.293C567.857 246.517 567.987 245.813 568.246 245.184C568.504 244.549 568.893 244.063 569.41 243.726C569.928 243.389 570.506 243.221 571.146 243.221C571.615 243.221 572.032 243.321 572.398 243.521C572.765 243.716 573.062 243.973 573.292 244.29V240.438H574.603V251.175H573.38ZM569.212 247.293C569.212 248.289 569.422 249.034 569.842 249.527C570.262 250.02 570.758 250.267 571.329 250.267C571.905 250.267 572.394 250.032 572.794 249.563C573.199 249.09 573.402 248.37 573.402 247.403C573.402 246.338 573.197 245.557 572.787 245.059C572.376 244.561 571.871 244.312 571.271 244.312C570.685 244.312 570.194 244.551 569.798 245.03C569.408 245.508 569.212 246.263 569.212 247.293ZM576.156 248.853L577.459 248.648C577.533 249.17 577.735 249.571 578.067 249.849C578.404 250.127 578.873 250.267 579.474 250.267C580.079 250.267 580.528 250.145 580.821 249.9C581.114 249.651 581.261 249.361 581.261 249.029C581.261 248.731 581.131 248.497 580.873 248.326C580.692 248.208 580.243 248.06 579.525 247.879C578.558 247.635 577.887 247.425 577.511 247.249C577.14 247.068 576.856 246.822 576.661 246.509C576.471 246.192 576.375 245.843 576.375 245.462C576.375 245.115 576.454 244.795 576.61 244.502C576.771 244.205 576.988 243.958 577.262 243.763C577.467 243.611 577.745 243.484 578.097 243.382C578.453 243.274 578.834 243.221 579.239 243.221C579.85 243.221 580.384 243.309 580.843 243.484C581.307 243.66 581.649 243.899 581.869 244.202C582.088 244.5 582.24 244.9 582.323 245.403L581.034 245.579C580.975 245.179 580.804 244.866 580.521 244.642C580.243 244.417 579.847 244.305 579.334 244.305C578.729 244.305 578.297 244.405 578.038 244.605C577.779 244.805 577.65 245.04 577.65 245.308C577.65 245.479 577.704 245.633 577.811 245.77C577.918 245.911 578.087 246.028 578.316 246.121C578.448 246.17 578.836 246.282 579.481 246.458C580.414 246.707 581.063 246.912 581.429 247.073C581.8 247.229 582.091 247.459 582.301 247.762C582.511 248.064 582.616 248.44 582.616 248.89C582.616 249.329 582.486 249.744 582.228 250.135C581.974 250.521 581.605 250.821 581.122 251.036C580.638 251.246 580.091 251.351 579.481 251.351C578.47 251.351 577.699 251.141 577.167 250.721C576.639 250.301 576.302 249.678 576.156 248.853Z" fill="#757575"/>
<path d="M376.889 253V243.53H373.352V242.263H381.862V243.53H378.31V253H376.889ZM386.813 250.495L388.176 250.664C387.961 251.459 387.563 252.077 386.982 252.517C386.401 252.956 385.659 253.176 384.755 253.176C383.618 253.176 382.714 252.827 382.045 252.128C381.381 251.425 381.049 250.441 381.049 249.177C381.049 247.868 381.386 246.853 382.06 246.13C382.734 245.407 383.608 245.046 384.682 245.046C385.722 245.046 386.572 245.4 387.231 246.108C387.89 246.816 388.22 247.812 388.22 249.096C388.22 249.174 388.217 249.292 388.212 249.448H382.412C382.46 250.302 382.702 250.957 383.137 251.411C383.571 251.865 384.113 252.092 384.763 252.092C385.246 252.092 385.659 251.965 386 251.711C386.342 251.457 386.613 251.052 386.813 250.495ZM382.485 248.364H386.828C386.77 247.709 386.604 247.219 386.33 246.892C385.91 246.384 385.366 246.13 384.697 246.13C384.091 246.13 383.581 246.333 383.166 246.738C382.756 247.143 382.529 247.685 382.485 248.364ZM395.163 250.495L396.525 250.664C396.311 251.459 395.913 252.077 395.332 252.517C394.75 252.956 394.008 253.176 393.105 253.176C391.967 253.176 391.064 252.827 390.395 252.128C389.731 251.425 389.399 250.441 389.399 249.177C389.399 247.868 389.736 246.853 390.41 246.13C391.083 245.407 391.958 245.046 393.032 245.046C394.072 245.046 394.921 245.4 395.581 246.108C396.24 246.816 396.569 247.812 396.569 249.096C396.569 249.174 396.567 249.292 396.562 249.448H390.761C390.81 250.302 391.052 250.957 391.486 251.411C391.921 251.865 392.463 252.092 393.112 252.092C393.596 252.092 394.008 251.965 394.35 251.711C394.692 251.457 394.963 251.052 395.163 250.495ZM390.834 248.364H395.178C395.119 247.709 394.953 247.219 394.68 246.892C394.26 246.384 393.715 246.13 393.046 246.13C392.441 246.13 391.931 246.333 391.516 246.738C391.105 247.143 390.878 247.685 390.834 248.364ZM398.188 253V245.222H399.375V246.328C399.946 245.473 400.771 245.046 401.85 245.046C402.319 245.046 402.749 245.131 403.139 245.302C403.535 245.468 403.83 245.688 404.025 245.961C404.221 246.235 404.357 246.56 404.436 246.936C404.484 247.18 404.509 247.607 404.509 248.217V253H403.19V248.269C403.19 247.731 403.139 247.331 403.037 247.067C402.934 246.799 402.751 246.586 402.487 246.43C402.229 246.269 401.923 246.188 401.572 246.188C401.01 246.188 400.524 246.367 400.114 246.723C399.709 247.08 399.506 247.756 399.506 248.752V253H398.188Z" fill="#757575"/>
<g filter="url(#filter10_d)">
<path d="M163.978 253L168.102 242.263H169.632L174.027 253H172.408L171.156 249.748H166.666L165.487 253H163.978ZM167.076 248.591H170.716L169.596 245.617C169.254 244.714 169 243.972 168.834 243.391C168.697 244.079 168.504 244.763 168.255 245.441L167.076 248.591ZM180.04 253V252.019C179.547 252.79 178.822 253.176 177.865 253.176C177.245 253.176 176.673 253.005 176.151 252.663C175.633 252.321 175.23 251.845 174.942 251.235C174.659 250.62 174.518 249.914 174.518 249.118C174.518 248.342 174.647 247.639 174.906 247.009C175.165 246.374 175.553 245.888 176.07 245.551C176.588 245.214 177.167 245.046 177.806 245.046C178.275 245.046 178.692 245.146 179.059 245.346C179.425 245.542 179.723 245.798 179.952 246.115V242.263H181.263V253H180.04ZM175.873 249.118C175.873 250.114 176.083 250.859 176.502 251.352C176.922 251.845 177.418 252.092 177.989 252.092C178.565 252.092 179.054 251.857 179.454 251.389C179.859 250.915 180.062 250.195 180.062 249.228C180.062 248.164 179.857 247.382 179.447 246.884C179.037 246.386 178.531 246.137 177.931 246.137C177.345 246.137 176.854 246.376 176.458 246.855C176.068 247.333 175.873 248.088 175.873 249.118ZM188.441 253V251.857C187.835 252.736 187.013 253.176 185.973 253.176C185.514 253.176 185.084 253.088 184.684 252.912C184.288 252.736 183.993 252.517 183.797 252.253C183.607 251.984 183.473 251.657 183.395 251.271C183.341 251.013 183.314 250.603 183.314 250.041V245.222H184.632V249.536C184.632 250.224 184.659 250.688 184.713 250.927C184.796 251.274 184.972 251.547 185.24 251.748C185.509 251.943 185.841 252.041 186.236 252.041C186.632 252.041 187.003 251.94 187.35 251.74C187.696 251.535 187.94 251.259 188.082 250.913C188.229 250.561 188.302 250.053 188.302 249.389V245.222H189.62V253H188.441ZM191.664 253V242.263H192.982V253H191.664ZM197.911 251.821L198.102 252.985C197.73 253.063 197.398 253.103 197.105 253.103C196.627 253.103 196.256 253.027 195.992 252.875C195.729 252.724 195.543 252.526 195.436 252.282C195.328 252.033 195.274 251.513 195.274 250.722V246.247H194.308V245.222H195.274V243.295L196.585 242.504V245.222H197.911V246.247H196.585V250.795C196.585 251.171 196.607 251.413 196.651 251.521C196.7 251.628 196.776 251.713 196.878 251.777C196.986 251.84 197.137 251.872 197.333 251.872C197.479 251.872 197.672 251.855 197.911 251.821Z" fill="#757575"/>
</g>
<g filter="url(#filter11_d)">
<circle cx="48" cy="235" r="20" fill="#C4C4C4"/>
</g>
<path d="M52 229L46 235L52 241" stroke="#838383" stroke-width="2" stroke-linecap="round" stroke-linejoin="round"/>
<g filter="url(#filter12_d)">
<circle cx="743" cy="235" r="20" fill="#C4C4C4"/>
</g>
<path d="M741 241L747 235L741 229" stroke="#838383" stroke-width="2" stroke-linecap="round" stroke-linejoin="round"/>
<path d="M976.857 71.244C976.857 67.8813 976.025 65.3853 974.361 63.756C972.732 62.092 970.6 61.26 967.965 61.26C967.341 61.26 966.752 61.2773 966.197 61.312C965.643 61.3467 965.088 61.416 964.533 61.52V80.864C964.984 80.968 965.521 81.0547 966.145 81.124C966.804 81.1587 967.428 81.176 968.017 81.176C970.721 81.176 972.871 80.3613 974.465 78.732C976.06 77.068 976.857 74.572 976.857 71.244ZM985.281 71.14C985.281 73.9133 984.865 76.34 984.033 78.42C983.201 80.5 982.023 82.2333 980.497 83.62C979.007 85.0067 977.187 86.0467 975.037 86.74C972.923 87.4333 970.565 87.78 967.965 87.78C967.376 87.78 966.7 87.7627 965.937 87.728C965.209 87.6933 964.447 87.624 963.649 87.52C962.887 87.4507 962.107 87.3293 961.309 87.156C960.512 87.0173 959.784 86.8267 959.125 86.584C957.323 85.9253 956.421 84.7467 956.421 83.048V58.296C956.421 57.6027 956.595 57.0653 956.941 56.684C957.323 56.3027 957.86 55.9907 958.553 55.748C959.975 55.2973 961.483 55.0027 963.077 54.864C964.672 54.7253 966.128 54.656 967.445 54.656C970.115 54.656 972.541 54.9853 974.725 55.644C976.909 56.3027 978.781 57.3253 980.341 58.712C981.901 60.064 983.115 61.78 983.981 63.86C984.848 65.9053 985.281 68.332 985.281 71.14ZM996.934 77.796C997.419 79.252 998.268 80.292 999.482 80.916C1000.7 81.5053 1002.1 81.8 1003.69 81.8C1005.15 81.8 1006.52 81.6093 1007.8 81.228C1009.08 80.812 1010.12 80.3613 1010.92 79.876C1011.44 80.2227 1011.88 80.6733 1012.22 81.228C1012.57 81.7827 1012.74 82.3893 1012.74 83.048C1012.74 83.8453 1012.5 84.5387 1012.01 85.128C1011.53 85.7173 1010.85 86.22 1009.99 86.636C1009.15 87.0173 1008.15 87.2947 1006.97 87.468C1005.83 87.676 1004.56 87.78 1003.17 87.78C1001.13 87.78 999.239 87.5027 997.506 86.948C995.772 86.3587 994.282 85.5093 993.034 84.4C991.786 83.256 990.798 81.8347 990.07 80.136C989.376 78.4373 989.03 76.444 989.03 74.156C989.03 71.9373 989.376 70.0133 990.07 68.384C990.798 66.7547 991.751 65.4027 992.93 64.328C994.143 63.2533 995.512 62.4733 997.038 61.988C998.598 61.468 1000.19 61.208 1001.82 61.208C1003.59 61.208 1005.2 61.4853 1006.66 62.04C1008.15 62.56 1009.41 63.3053 1010.45 64.276C1011.53 65.2467 1012.36 66.408 1012.95 67.76C1013.54 69.112 1013.83 70.5853 1013.83 72.18C1013.83 73.2893 1013.54 74.1213 1012.95 74.676C1012.36 75.2307 1011.53 75.5947 1010.45 75.768L996.934 77.796ZM1001.87 67.084C1000.38 67.084 999.135 67.552 998.13 68.488C997.159 69.3893 996.587 70.7067 996.414 72.44L1006.35 70.828C1006.28 69.9267 1005.88 69.0773 1005.15 68.28C1004.42 67.4827 1003.33 67.084 1001.87 67.084ZM1038.95 79.668C1038.95 82.2333 1037.99 84.244 1036.09 85.7C1034.18 87.1213 1031.37 87.832 1027.66 87.832C1026.21 87.832 1024.87 87.728 1023.66 87.52C1022.48 87.312 1021.46 87 1020.59 86.584C1019.72 86.168 1019.05 85.648 1018.56 85.024C1018.08 84.4 1017.83 83.672 1017.83 82.84C1017.83 82.0773 1017.99 81.436 1018.3 80.916C1018.61 80.3613 1019.01 79.9107 1019.5 79.564C1020.5 80.1533 1021.65 80.6733 1022.93 81.124C1024.21 81.5747 1025.7 81.8 1027.4 81.8C1029.86 81.8 1031.09 81.1067 1031.09 79.72C1031.09 79.1307 1030.87 78.68 1030.42 78.368C1030 78.056 1029.27 77.7787 1028.23 77.536L1026.15 77.068C1023.31 76.4787 1021.2 75.5773 1019.81 74.364C1018.42 73.116 1017.73 71.3827 1017.73 69.164C1017.73 66.7027 1018.72 64.7613 1020.69 63.34C1022.71 61.884 1025.39 61.156 1028.75 61.156C1030 61.156 1031.18 61.26 1032.29 61.468C1033.4 61.6413 1034.35 61.9187 1035.15 62.3C1035.95 62.6813 1036.57 63.1667 1037.02 63.756C1037.51 64.3107 1037.75 64.9693 1037.75 65.732C1037.75 66.4253 1037.61 67.0493 1037.33 67.604C1037.06 68.124 1036.69 68.5573 1036.24 68.904C1035.97 68.7307 1035.55 68.54 1034.99 68.332C1034.47 68.124 1033.9 67.9333 1033.28 67.76C1032.65 67.5867 1032 67.448 1031.3 67.344C1030.61 67.24 1029.97 67.188 1029.38 67.188C1028.17 67.188 1027.21 67.3613 1026.52 67.708C1025.86 68.02 1025.53 68.5053 1025.53 69.164C1025.53 69.6493 1025.72 70.0307 1026.1 70.308C1026.48 70.5853 1027.18 70.8453 1028.18 71.088L1030.16 71.556C1033.31 72.2493 1035.57 73.2547 1036.92 74.572C1038.27 75.8893 1038.95 77.588 1038.95 79.668ZM1051.76 86.948C1051.41 87.052 1050.93 87.1387 1050.3 87.208C1049.68 87.312 1048.99 87.364 1048.22 87.364C1046.66 87.364 1045.54 87.1213 1044.84 86.636C1044.18 86.116 1043.86 85.128 1043.86 83.672V62.3C1044.2 62.196 1044.69 62.092 1045.31 61.988C1045.94 61.884 1046.63 61.832 1047.39 61.832C1048.95 61.832 1050.06 62.092 1050.72 62.612C1051.41 63.132 1051.76 64.12 1051.76 65.576V86.948ZM1043.39 54.812C1043.39 53.6333 1043.79 52.628 1044.58 51.796C1045.42 50.964 1046.49 50.548 1047.81 50.548C1049.12 50.548 1050.18 50.964 1050.98 51.796C1051.81 52.628 1052.23 53.6333 1052.23 54.812C1052.23 56.0253 1051.81 57.048 1050.98 57.88C1050.18 58.712 1049.12 59.128 1047.81 59.128C1046.49 59.128 1045.42 58.712 1044.58 57.88C1043.79 57.048 1043.39 56.0253 1043.39 54.812ZM1073.57 84.972C1072.88 85.284 1072.1 85.544 1071.23 85.752C1070.36 85.9253 1069.37 86.012 1068.27 86.012C1066.71 86.012 1065.21 85.804 1063.79 85.388C1062.41 84.9373 1061.19 84.2267 1060.15 83.256C1059.11 82.2853 1058.28 81.02 1057.66 79.46C1057.03 77.9 1056.72 75.9933 1056.72 73.74C1056.72 71.6947 1057.03 69.892 1057.66 68.332C1058.28 66.772 1059.17 65.472 1060.31 64.432C1061.49 63.3573 1062.87 62.56 1064.47 62.04C1066.1 61.4853 1067.9 61.208 1069.88 61.208C1071.82 61.208 1073.59 61.468 1075.18 61.988C1076.81 62.4733 1078.08 63.0107 1078.98 63.6C1079.64 64.0507 1080.16 64.5707 1080.54 65.16C1080.92 65.7147 1081.11 66.4253 1081.11 67.292V86.896C1081.11 88.6987 1080.78 90.2587 1080.12 91.576C1079.46 92.8933 1078.54 93.968 1077.37 94.8C1076.22 95.6667 1074.87 96.308 1073.31 96.724C1071.75 97.14 1070.07 97.348 1068.27 97.348C1066.39 97.348 1064.76 97.192 1063.38 96.88C1062.03 96.568 1060.95 96.1693 1060.15 95.684C1058.97 94.852 1058.39 93.7427 1058.39 92.356C1058.39 91.628 1058.54 90.952 1058.85 90.328C1059.17 89.7387 1059.51 89.3053 1059.89 89.028C1060.86 89.5827 1061.97 90.0507 1063.22 90.432C1064.5 90.848 1065.86 91.056 1067.28 91.056C1069.22 91.056 1070.74 90.7093 1071.85 90.016C1073 89.3573 1073.57 88.248 1073.57 86.688V84.972ZM1069.67 80.032C1070.5 80.032 1071.21 79.928 1071.8 79.72C1072.43 79.512 1072.98 79.2347 1073.47 78.888V68.228C1073.05 68.0547 1072.58 67.8813 1072.06 67.708C1071.58 67.5347 1070.95 67.448 1070.19 67.448C1068.53 67.448 1067.17 67.968 1066.13 69.008C1065.13 70.0133 1064.63 71.608 1064.63 73.792C1064.63 74.9707 1064.75 75.9587 1064.99 76.756C1065.27 77.5533 1065.63 78.1947 1066.08 78.68C1066.53 79.1653 1067.05 79.512 1067.64 79.72C1068.27 79.928 1068.94 80.032 1069.67 80.032ZM1103.13 71.036C1103.13 69.8227 1102.77 68.9213 1102.04 68.332C1101.31 67.7427 1100.34 67.448 1099.13 67.448C1098.3 67.448 1097.54 67.552 1096.84 67.76C1096.15 67.968 1095.51 68.228 1094.92 68.54V86.948C1094.57 87.052 1094.09 87.1387 1093.46 87.208C1092.84 87.312 1092.15 87.364 1091.38 87.364C1089.82 87.364 1088.7 87.1213 1088 86.636C1087.31 86.116 1086.96 85.128 1086.96 83.672V67.604C1086.96 66.7027 1087.15 65.9747 1087.53 65.42C1087.92 64.8653 1088.45 64.3453 1089.15 63.86C1090.26 63.0627 1091.68 62.4213 1093.41 61.936C1095.18 61.4507 1097.12 61.208 1099.23 61.208C1103.01 61.208 1105.93 62.04 1107.97 63.704C1110.05 65.368 1111.09 67.7427 1111.09 70.828V86.948C1110.71 87.052 1110.21 87.1387 1109.58 87.208C1108.96 87.312 1108.27 87.364 1107.5 87.364C1105.94 87.364 1104.82 87.1213 1104.12 86.636C1103.46 86.116 1103.13 85.128 1103.13 83.672V71.036ZM1135.55 86.948C1135.2 87.052 1134.72 87.1387 1134.09 87.208C1133.47 87.312 1132.78 87.364 1132.01 87.364C1130.45 87.364 1129.33 87.1213 1128.63 86.636C1127.97 86.116 1127.64 85.128 1127.64 83.672V62.3C1127.99 62.196 1128.48 62.092 1129.1 61.988C1129.72 61.884 1130.42 61.832 1131.18 61.832C1132.74 61.832 1133.85 62.092 1134.51 62.612C1135.2 63.132 1135.55 64.12 1135.55 65.576V86.948ZM1127.18 54.812C1127.18 53.6333 1127.58 52.628 1128.37 51.796C1129.2 50.964 1130.28 50.548 1131.6 50.548C1132.91 50.548 1133.97 50.964 1134.77 51.796C1135.6 52.628 1136.02 53.6333 1136.02 54.812C1136.02 56.0253 1135.6 57.048 1134.77 57.88C1133.97 58.712 1132.91 59.128 1131.6 59.128C1130.28 59.128 1129.2 58.712 1128.37 57.88C1127.58 57.048 1127.18 56.0253 1127.18 54.812ZM1162.14 79.668C1162.14 82.2333 1161.19 84.244 1159.28 85.7C1157.38 87.1213 1154.57 87.832 1150.86 87.832C1149.4 87.832 1148.07 87.728 1146.85 87.52C1145.68 87.312 1144.65 87 1143.79 86.584C1142.92 86.168 1142.24 85.648 1141.76 85.024C1141.27 84.4 1141.03 83.672 1141.03 82.84C1141.03 82.0773 1141.19 81.436 1141.5 80.916C1141.81 80.3613 1142.21 79.9107 1142.69 79.564C1143.7 80.1533 1144.84 80.6733 1146.13 81.124C1147.41 81.5747 1148.9 81.8 1150.6 81.8C1153.06 81.8 1154.29 81.1067 1154.29 79.72C1154.29 79.1307 1154.06 78.68 1153.61 78.368C1153.2 78.056 1152.47 77.7787 1151.43 77.536L1149.35 77.068C1146.51 76.4787 1144.39 75.5773 1143.01 74.364C1141.62 73.116 1140.93 71.3827 1140.93 69.164C1140.93 66.7027 1141.91 64.7613 1143.89 63.34C1145.9 61.884 1148.59 61.156 1151.95 61.156C1153.2 61.156 1154.38 61.26 1155.49 61.468C1156.6 61.6413 1157.55 61.9187 1158.35 62.3C1159.14 62.6813 1159.77 63.1667 1160.22 63.756C1160.7 64.3107 1160.95 64.9693 1160.95 65.732C1160.95 66.4253 1160.81 67.0493 1160.53 67.604C1160.25 68.124 1159.89 68.5573 1159.44 68.904C1159.16 68.7307 1158.74 68.54 1158.19 68.332C1157.67 68.124 1157.1 67.9333 1156.47 67.76C1155.85 67.5867 1155.19 67.448 1154.5 67.344C1153.8 67.24 1153.16 67.188 1152.57 67.188C1151.36 67.188 1150.41 67.3613 1149.71 67.708C1149.06 68.02 1148.73 68.5053 1148.73 69.164C1148.73 69.6493 1148.92 70.0307 1149.3 70.308C1149.68 70.5853 1150.37 70.8453 1151.38 71.088L1153.35 71.556C1156.51 72.2493 1158.76 73.2547 1160.11 74.572C1161.47 75.8893 1162.14 77.588 1162.14 79.668ZM1185.16 78.732C1185.16 79.7027 1185.47 80.4133 1186.09 80.864C1186.72 81.28 1187.58 81.488 1188.69 81.488C1189.21 81.488 1189.77 81.436 1190.36 81.332C1190.95 81.1933 1191.45 81.0373 1191.87 80.864C1192.18 81.2107 1192.44 81.6093 1192.65 82.06C1192.85 82.5107 1192.96 83.0307 1192.96 83.62C1192.96 84.8333 1192.47 85.8387 1191.5 86.636C1190.57 87.3987 1188.92 87.78 1186.56 87.78C1183.65 87.78 1181.38 87.1213 1179.75 85.804C1178.12 84.452 1177.31 82.268 1177.31 79.252V55.904C1177.69 55.8 1178.19 55.696 1178.81 55.592C1179.44 55.4533 1180.11 55.384 1180.84 55.384C1182.37 55.384 1183.46 55.6613 1184.12 56.216C1184.81 56.736 1185.16 57.7067 1185.16 59.128V62.508H1192.33C1192.51 62.8547 1192.68 63.3053 1192.85 63.86C1193.03 64.38 1193.11 64.9347 1193.11 65.524C1193.11 66.6333 1192.85 67.4307 1192.33 67.916C1191.85 68.4013 1191.21 68.644 1190.41 68.644H1185.16V78.732ZM1205.62 86.948C1205.28 87.052 1204.79 87.1387 1204.17 87.208C1203.54 87.312 1202.85 87.364 1202.09 87.364C1200.53 87.364 1199.4 87.1213 1198.71 86.636C1198.02 86.116 1197.67 85.128 1197.67 83.672V53.148C1198.05 53.044 1198.55 52.94 1199.18 52.836C1199.8 52.732 1200.49 52.68 1201.26 52.68C1202.82 52.68 1203.93 52.94 1204.58 53.46C1205.28 53.98 1205.62 54.968 1205.62 56.424V62.404C1206.35 62.0573 1207.17 61.78 1208.07 61.572C1209 61.3293 1210.01 61.208 1211.08 61.208C1214.41 61.208 1217.01 62.0573 1218.88 63.756C1220.79 65.42 1221.74 67.9333 1221.74 71.296V86.948C1221.4 87.052 1220.91 87.1387 1220.29 87.208C1219.66 87.312 1218.97 87.364 1218.21 87.364C1216.65 87.364 1215.52 87.1213 1214.83 86.636C1214.14 86.116 1213.79 85.128 1213.79 83.672V71.764C1213.79 70.204 1213.39 69.0947 1212.59 68.436C1211.83 67.7773 1210.84 67.448 1209.63 67.448C1208.83 67.448 1208.1 67.5693 1207.44 67.812C1206.79 68.02 1206.18 68.28 1205.62 68.592V86.948ZM1234.44 77.796C1234.92 79.252 1235.77 80.292 1236.99 80.916C1238.2 81.5053 1239.6 81.8 1241.2 81.8C1242.65 81.8 1244.02 81.6093 1245.31 81.228C1246.59 80.812 1247.63 80.3613 1248.43 79.876C1248.95 80.2227 1249.38 80.6733 1249.73 81.228C1250.07 81.7827 1250.25 82.3893 1250.25 83.048C1250.25 83.8453 1250 84.5387 1249.52 85.128C1249.03 85.7173 1248.36 86.22 1247.49 86.636C1246.66 87.0173 1245.65 87.2947 1244.47 87.468C1243.33 87.676 1242.06 87.78 1240.68 87.78C1238.63 87.78 1236.74 87.5027 1235.01 86.948C1233.28 86.3587 1231.79 85.5093 1230.54 84.4C1229.29 83.256 1228.3 81.8347 1227.57 80.136C1226.88 78.4373 1226.53 76.444 1226.53 74.156C1226.53 71.9373 1226.88 70.0133 1227.57 68.384C1228.3 66.7547 1229.25 65.4027 1230.43 64.328C1231.65 63.2533 1233.02 62.4733 1234.54 61.988C1236.1 61.468 1237.7 61.208 1239.33 61.208C1241.09 61.208 1242.71 61.4853 1244.16 62.04C1245.65 62.56 1246.92 63.3053 1247.96 64.276C1249.03 65.2467 1249.86 66.408 1250.45 67.76C1251.04 69.112 1251.34 70.5853 1251.34 72.18C1251.34 73.2893 1251.04 74.1213 1250.45 74.676C1249.86 75.2307 1249.03 75.5947 1247.96 75.768L1234.44 77.796ZM1239.38 67.084C1237.89 67.084 1236.64 67.552 1235.63 68.488C1234.66 69.3893 1234.09 70.7067 1233.92 72.44L1243.85 70.828C1243.78 69.9267 1243.38 69.0773 1242.65 68.28C1241.93 67.4827 1240.83 67.084 1239.38 67.084ZM1136.17 144.04V168.948C1135.79 169.052 1135.26 169.139 1134.56 169.208C1133.87 169.312 1133.14 169.364 1132.38 169.364C1130.75 169.364 1129.6 169.087 1128.95 168.532C1128.29 167.977 1127.96 166.972 1127.96 165.516V144.04H1119.79C1119.59 143.693 1119.38 143.243 1119.17 142.688C1119 142.133 1118.91 141.527 1118.91 140.868C1118.91 139.689 1119.17 138.84 1119.69 138.32C1120.21 137.765 1120.92 137.488 1121.82 137.488H1144.55C1144.79 137.835 1145 138.285 1145.17 138.84C1145.34 139.395 1145.43 140.001 1145.43 140.66C1145.43 141.804 1145.17 142.653 1144.65 143.208C1144.13 143.763 1143.42 144.04 1142.52 144.04H1136.17ZM1155.3 168.948C1154.95 169.052 1154.47 169.139 1153.84 169.208C1153.22 169.312 1152.52 169.364 1151.76 169.364C1150.2 169.364 1149.08 169.121 1148.38 168.636C1147.69 168.116 1147.34 167.128 1147.34 165.672V149.812C1147.34 148.841 1147.58 148.009 1148.07 147.316C1148.56 146.623 1149.23 146.016 1150.1 145.496C1151.24 144.803 1152.61 144.265 1154.21 143.884C1155.84 143.468 1157.53 143.26 1159.3 143.26C1162.91 143.26 1164.71 144.473 1164.71 146.9C1164.71 147.489 1164.62 148.027 1164.45 148.512C1164.28 148.997 1164.09 149.413 1163.88 149.76C1163.08 149.587 1162.11 149.5 1160.97 149.5C1159.96 149.5 1158.96 149.621 1157.95 149.864C1156.94 150.107 1156.06 150.436 1155.3 150.852V168.948ZM1174.31 159.796C1174.8 161.252 1175.65 162.292 1176.86 162.916C1178.07 163.505 1179.48 163.8 1181.07 163.8C1182.53 163.8 1183.9 163.609 1185.18 163.228C1186.46 162.812 1187.5 162.361 1188.3 161.876C1188.82 162.223 1189.25 162.673 1189.6 163.228C1189.95 163.783 1190.12 164.389 1190.12 165.048C1190.12 165.845 1189.88 166.539 1189.39 167.128C1188.91 167.717 1188.23 168.22 1187.36 168.636C1186.53 169.017 1185.53 169.295 1184.35 169.468C1183.2 169.676 1181.94 169.78 1180.55 169.78C1178.51 169.78 1176.62 169.503 1174.88 168.948C1173.15 168.359 1171.66 167.509 1170.41 166.4C1169.16 165.256 1168.18 163.835 1167.45 162.136C1166.76 160.437 1166.41 158.444 1166.41 156.156C1166.41 153.937 1166.76 152.013 1167.45 150.384C1168.18 148.755 1169.13 147.403 1170.31 146.328C1171.52 145.253 1172.89 144.473 1174.42 143.988C1175.98 143.468 1177.57 143.208 1179.2 143.208C1180.97 143.208 1182.58 143.485 1184.04 144.04C1185.53 144.56 1186.79 145.305 1187.83 146.276C1188.91 147.247 1189.74 148.408 1190.33 149.76C1190.92 151.112 1191.21 152.585 1191.21 154.18C1191.21 155.289 1190.92 156.121 1190.33 156.676C1189.74 157.231 1188.91 157.595 1187.83 157.768L1174.31 159.796ZM1179.25 149.084C1177.76 149.084 1176.51 149.552 1175.51 150.488C1174.54 151.389 1173.97 152.707 1173.79 154.44L1183.72 152.828C1183.66 151.927 1183.26 151.077 1182.53 150.28C1181.8 149.483 1180.71 149.084 1179.25 149.084ZM1211.96 153.036C1211.96 151.823 1211.6 150.921 1210.87 150.332C1210.14 149.743 1209.17 149.448 1207.96 149.448C1207.12 149.448 1206.36 149.552 1205.67 149.76C1204.97 149.968 1204.33 150.228 1203.74 150.54V168.948C1203.4 169.052 1202.91 169.139 1202.29 169.208C1201.66 169.312 1200.97 169.364 1200.21 169.364C1198.65 169.364 1197.52 169.121 1196.83 168.636C1196.13 168.116 1195.79 167.128 1195.79 165.672V149.604C1195.79 148.703 1195.98 147.975 1196.36 147.42C1196.74 146.865 1197.28 146.345 1197.97 145.86C1199.08 145.063 1200.5 144.421 1202.24 143.936C1204 143.451 1205.94 143.208 1208.06 143.208C1211.84 143.208 1214.75 144.04 1216.8 145.704C1218.88 147.368 1219.92 149.743 1219.92 152.828V168.948C1219.53 169.052 1219.03 169.139 1218.41 169.208C1217.78 169.312 1217.09 169.364 1216.33 169.364C1214.77 169.364 1213.64 169.121 1212.95 168.636C1212.29 168.116 1211.96 167.128 1211.96 165.672V153.036ZM1237.76 143.208C1238.56 143.208 1239.3 143.277 1239.99 143.416C1240.72 143.52 1241.38 143.676 1241.97 143.884V135.148C1242.35 135.044 1242.85 134.94 1243.48 134.836C1244.1 134.732 1244.8 134.68 1245.56 134.68C1247.12 134.68 1248.23 134.94 1248.89 135.46C1249.58 135.98 1249.93 136.968 1249.93 138.424V163.748C1249.93 164.58 1249.75 165.291 1249.41 165.88C1249.06 166.435 1248.51 166.955 1247.74 167.44C1246.77 168.029 1245.52 168.567 1244 169.052C1242.47 169.537 1240.72 169.78 1238.75 169.78C1234.38 169.78 1230.93 168.688 1228.4 166.504C1225.9 164.285 1224.65 160.975 1224.65 156.572C1224.65 154.284 1224.98 152.308 1225.64 150.644C1226.34 148.98 1227.27 147.593 1228.45 146.484C1229.63 145.375 1231.02 144.56 1232.61 144.04C1234.21 143.485 1235.92 143.208 1237.76 143.208ZM1242.02 150.228C1241.57 150.02 1241.07 149.847 1240.51 149.708C1239.99 149.535 1239.44 149.448 1238.85 149.448C1236.98 149.448 1235.49 150.02 1234.38 151.164C1233.27 152.308 1232.71 154.128 1232.71 156.624C1232.71 159.016 1233.23 160.767 1234.27 161.876C1235.35 162.951 1236.82 163.488 1238.69 163.488C1239.42 163.488 1240.06 163.419 1240.62 163.28C1241.21 163.107 1241.68 162.916 1242.02 162.708V150.228Z" fill="white"/>
<defs>
<filter id="filter0_d" x="0" y="0" width="1314" height="265" filterUnits="userSpaceOnUse" color-interpolation-filters="sRGB">
<feFlood flood-opacity="0" result="BackgroundImageFix"/>
<feColorMatrix in="SourceAlpha" type="matrix" values="0 0 0 0 0 0 0 0 0 0 0 0 0 0 0 0 0 0 127 0"/>
<feOffset dx="1" dy="1"/>
<feGaussianBlur stdDeviation="3.5"/>
<feColorMatrix type="matrix" values="0 0 0 0 0 0 0 0 0 0 0 0 0 0 0 0 0 0 0.25 0"/>
<feBlend mode="normal" in2="BackgroundImageFix" result="effect1_dropShadow"/>
<feBlend mode="normal" in="SourceGraphic" in2="effect1_dropShadow" result="shape"/>
</filter>
<filter id="filter1_dd" x="366.995" y="112.582" width="151.806" height="146.575" filterUnits="userSpaceOnUse" color-interpolation-filters="sRGB">
<feFlood flood-opacity="0" result="BackgroundImageFix"/>
<feColorMatrix in="SourceAlpha" type="matrix" values="0 0 0 0 0 0 0 0 0 0 0 0 0 0 0 0 0 0 127 0"/>
<feOffset dx="1" dy="1"/>
<feGaussianBlur stdDeviation="3.5"/>
<feColorMatrix type="matrix" values="0 0 0 0 0 0 0 0 0 0 0 0 0 0 0 0 0 0 0.25 0"/>
<feBlend mode="normal" in2="BackgroundImageFix" result="effect1_dropShadow"/>
<feColorMatrix in="SourceAlpha" type="matrix" values="0 0 0 0 0 0 0 0 0 0 0 0 0 0 0 0 0 0 127 0"/>
<feOffset dx="1" dy="1"/>
<feGaussianBlur stdDeviation="3.5"/>
<feColorMatrix type="matrix" values="0 0 0 0 0 0 0 0 0 0 0 0 0 0 0 0 0 0 0.25 0"/>
<feBlend mode="normal" in2="effect1_dropShadow" result="effect2_dropShadow"/>
<feBlend mode="normal" in="SourceGraphic" in2="effect2_dropShadow" result="shape"/>
</filter>
<filter id="filter2_dd" x="559.419" y="152.5" width="107.906" height="104.823" filterUnits="userSpaceOnUse" color-interpolation-filters="sRGB">
<feFlood flood-opacity="0" result="BackgroundImageFix"/>
<feColorMatrix in="SourceAlpha" type="matrix" values="0 0 0 0 0 0 0 0 0 0 0 0 0 0 0 0 0 0 127 0"/>
<feOffset dx="1" dy="1"/>
<feGaussianBlur stdDeviation="3.5"/>
<feColorMatrix type="matrix" values="0 0 0 0 0 0 0 0 0 0 0 0 0 0 0 0 0 0 0.25 0"/>
<feBlend mode="normal" in2="BackgroundImageFix" result="effect1_dropShadow"/>
<feColorMatrix in="SourceAlpha" type="matrix" values="0 0 0 0 0 0 0 0 0 0 0 0 0 0 0 0 0 0 127 0"/>
<feOffset dx="1" dy="1"/>
<feGaussianBlur stdDeviation="3.5"/>
<feColorMatrix type="matrix" values="0 0 0 0 0 0 0 0 0 0 0 0 0 0 0 0 0 0 0.25 0"/>
<feBlend mode="normal" in2="effect1_dropShadow" result="effect2_dropShadow"/>
<feBlend mode="normal" in="SourceGraphic" in2="effect2_dropShadow" result="shape"/>
</filter>
<filter id="filter3_d" x="449" y="121" width="66.7359" height="68.7558" filterUnits="userSpaceOnUse" color-interpolation-filters="sRGB">
<feFlood flood-opacity="0" result="BackgroundImageFix"/>
<feColorMatrix in="SourceAlpha" type="matrix" values="0 0 0 0 0 0 0 0 0 0 0 0 0 0 0 0 0 0 127 0"/>
<feOffset dx="1" dy="1"/>
<feGaussianBlur stdDeviation="3.5"/>
<feColorMatrix type="matrix" values="0 0 0 0 0 0 0 0 0 0 0 0 0 0 0 0 0 0 0.25 0"/>
<feBlend mode="normal" in2="BackgroundImageFix" result="effect1_dropShadow"/>
<feBlend mode="normal" in="SourceGraphic" in2="effect1_dropShadow" result="shape"/>
</filter>
<filter id="filter4_d" x="615" y="157" width="50.0903" height="51.4726" filterUnits="userSpaceOnUse" color-interpolation-filters="sRGB">
<feFlood flood-opacity="0" result="BackgroundImageFix"/>
<feColorMatrix in="SourceAlpha" type="matrix" values="0 0 0 0 0 0 0 0 0 0 0 0 0 0 0 0 0 0 127 0"/>
<feOffset dx="1" dy="1"/>
<feGaussianBlur stdDeviation="3.5"/>
<feColorMatrix type="matrix" values="0 0 0 0 0 0 0 0 0 0 0 0 0 0 0 0 0 0 0.25 0"/>
<feBlend mode="normal" in2="BackgroundImageFix" result="effect1_dropShadow"/>
<feBlend mode="normal" in="SourceGraphic" in2="effect1_dropShadow" result="shape"/>
</filter>
<filter id="filter5_dd" x="146.5" y="65.4999" width="201.553" height="193.657" filterUnits="userSpaceOnUse" color-interpolation-filters="sRGB">
<feFlood flood-opacity="0" result="BackgroundImageFix"/>
<feColorMatrix in="SourceAlpha" type="matrix" values="0 0 0 0 0 0 0 0 0 0 0 0 0 0 0 0 0 0 127 0"/>
<feOffset dx="1" dy="1"/>
<feGaussianBlur stdDeviation="3.5"/>
<feColorMatrix type="matrix" values="0 0 0 0 0 0 0 0 0 0 0 0 0 0 0 0 0 0 0.25 0"/>
<feBlend mode="normal" in2="BackgroundImageFix" result="effect1_dropShadow"/>
<feColorMatrix in="SourceAlpha" type="matrix" values="0 0 0 0 0 0 0 0 0 0 0 0 0 0 0 0 0 0 127 0"/>
<feOffset dx="1" dy="1"/>
<feGaussianBlur stdDeviation="3.5"/>
<feColorMatrix type="matrix" values="0 0 0 0 0 0 0 0 0 0 0 0 0 0 0 0 0 0 0.25 0"/>
<feBlend mode="normal" in2="effect1_dropShadow" result="effect2_dropShadow"/>
<feBlend mode="normal" in="SourceGraphic" in2="effect2_dropShadow" result="shape"/>
</filter>
<filter id="filter6_d" x="268.301" y="75.8428" width="73.2645" height="76.9519" filterUnits="userSpaceOnUse" color-interpolation-filters="sRGB">
<feFlood flood-opacity="0" result="BackgroundImageFix"/>
<feColorMatrix in="SourceAlpha" type="matrix" values="0 0 0 0 0 0 0 0 0 0 0 0 0 0 0 0 0 0 127 0"/>
<feOffset dx="1" dy="1"/>
<feGaussianBlur stdDeviation="3.5"/>
<feColorMatrix type="matrix" values="0 0 0 0 0 0 0 0 0 0 0 0 0 0 0 0 0 0 0.25 0"/>
<feBlend mode="normal" in2="BackgroundImageFix" result="effect1_dropShadow"/>
<feBlend mode="normal" in="SourceGraphic" in2="effect1_dropShadow" result="shape"/>
</filter>
<filter id="filter7_d" x="237.724" y="203.514" width="35.8067" height="38.6656" filterUnits="userSpaceOnUse" color-interpolation-filters="sRGB">
<feFlood flood-opacity="0" result="BackgroundImageFix"/>
<feColorMatrix in="SourceAlpha" type="matrix" values="0 0 0 0 0 0 0 0 0 0 0 0 0 0 0 0 0 0 127 0"/>
<feOffset dy="4"/>
<feGaussianBlur stdDeviation="2"/>
<feColorMatrix type="matrix" values="0 0 0 0 0 0 0 0 0 0 0 0 0 0 0 0 0 0 0.25 0"/>
<feBlend mode="normal" in2="BackgroundImageFix" result="effect1_dropShadow"/>
<feBlend mode="normal" in="SourceGraphic" in2="effect1_dropShadow" result="shape"/>
</filter>
<filter id="filter8_d" x="428.439" y="215.786" width="29.3898" height="31.5889" filterUnits="userSpaceOnUse" color-interpolation-filters="sRGB">
<feFlood flood-opacity="0" result="BackgroundImageFix"/>
<feColorMatrix in="SourceAlpha" type="matrix" values="0 0 0 0 0 0 0 0 0 0 0 0 0 0 0 0 0 0 127 0"/>
<feOffset dy="4"/>
<feGaussianBlur stdDeviation="2"/>
<feColorMatrix type="matrix" values="0 0 0 0 0 0 0 0 0 0 0 0 0 0 0 0 0 0 0.25 0"/>
<feBlend mode="normal" in2="BackgroundImageFix" result="effect1_dropShadow"/>
<feBlend mode="normal" in="SourceGraphic" in2="effect1_dropShadow" result="shape"/>
</filter>
<filter id="filter9_d" x="601.783" y="220.345" width="25.1118" height="26.8711" filterUnits="userSpaceOnUse" color-interpolation-filters="sRGB">
<feFlood flood-opacity="0" result="BackgroundImageFix"/>
<feColorMatrix in="SourceAlpha" type="matrix" values="0 0 0 0 0 0 0 0 0 0 0 0 0 0 0 0 0 0 127 0"/>
<feOffset dy="4"/>
<feGaussianBlur stdDeviation="2"/>
<feColorMatrix type="matrix" values="0 0 0 0 0 0 0 0 0 0 0 0 0 0 0 0 0 0 0.25 0"/>
<feBlend mode="normal" in2="BackgroundImageFix" result="effect1_dropShadow"/>
<feBlend mode="normal" in="SourceGraphic" in2="effect1_dropShadow" result="shape"/>
</filter>
<filter id="filter10_d" x="159.978" y="242.263" width="42.1235" height="18.9131" filterUnits="userSpaceOnUse" color-interpolation-filters="sRGB">
<feFlood flood-opacity="0" result="BackgroundImageFix"/>
<feColorMatrix in="SourceAlpha" type="matrix" values="0 0 0 0 0 0 0 0 0 0 0 0 0 0 0 0 0 0 127 0"/>
<feOffset dy="4"/>
<feGaussianBlur stdDeviation="2"/>
<feColorMatrix type="matrix" values="0 0 0 0 0 0 0 0 0 0 0 0 0 0 0 0 0 0 0.25 0"/>
<feBlend mode="normal" in2="BackgroundImageFix" result="effect1_dropShadow"/>
<feBlend mode="normal" in="SourceGraphic" in2="effect1_dropShadow" result="shape"/>
</filter>
<filter id="filter11_d" x="22" y="209" width="54" height="54" filterUnits="userSpaceOnUse" color-interpolation-filters="sRGB">
<feFlood flood-opacity="0" result="BackgroundImageFix"/>
<feColorMatrix in="SourceAlpha" type="matrix" values="0 0 0 0 0 0 0 0 0 0 0 0 0 0 0 0 0 0 127 0"/>
<feOffset dx="1" dy="1"/>
<feGaussianBlur stdDeviation="3.5"/>
<feColorMatrix type="matrix" values="0 0 0 0 0 0 0 0 0 0 0 0 0 0 0 0 0 0 0.25 0"/>
<feBlend mode="normal" in2="BackgroundImageFix" result="effect1_dropShadow"/>
<feBlend mode="normal" in="SourceGraphic" in2="effect1_dropShadow" result="shape"/>
</filter>
<filter id="filter12_d" x="717" y="209" width="54" height="54" filterUnits="userSpaceOnUse" color-interpolation-filters="sRGB">
<feFlood flood-opacity="0" result="BackgroundImageFix"/>
<feColorMatrix in="SourceAlpha" type="matrix" values="0 0 0 0 0 0 0 0 0 0 0 0 0 0 0 0 0 0 127 0"/>
<feOffset dx="1" dy="1"/>
<feGaussianBlur stdDeviation="3.5"/>
<feColorMatrix type="matrix" values="0 0 0 0 0 0 0 0 0 0 0 0 0 0 0 0 0 0 0.25 0"/>
<feBlend mode="normal" in2="BackgroundImageFix" result="effect1_dropShadow"/>
<feBlend mode="normal" in="SourceGraphic" in2="effect1_dropShadow" result="shape"/>
</filter>
</defs>
</svg>
