<svg width="41" height="45" viewBox="0 0 41 45" fill="none" xmlns="http://www.w3.org/2000/svg">
<path d="M6.47771 26.5132L1 9.9745C11.2849 11.3814 27.7091 4.86184 35.0784 1.22128C35.3269 1.09853 35.6226 1.20188 35.7459 1.45008L35.7498 1.45803C35.8428 1.64513 35.8062 1.86737 35.6933 2.04315C33.8696 4.88223 35.6585 15.8765 35.9045 16.0002C36.1083 16.1028 36.9236 17.0686 37.3057 17.5387C37.2208 18.2225 37.1019 19.6413 37.3057 19.8465C37.5096 20.0516 38.4947 21.214 38.9618 21.7696C39.0467 22.1115 39.242 22.9234 39.3439 23.4363C39.4459 23.9491 40.4904 25.0175 41 25.4876V27.0261L38.3248 31.5133C37.2038 34.6929 32.1677 38.9921 29.7898 40.7442C25.4586 43.693 17.9427 46.2571 13.6115 44.334C10.1465 42.7956 9.78981 40.616 10.0446 39.7186L11.0637 32.9236C8.82166 31.3851 7.07219 28.009 6.47771 26.5132Z" fill="#5C4E5F"/>
<g filter="url(#filter0_i)">
<path d="M34.9845 0.694411C16.9429 2.2433 5.43552 6.59982 1.01569 9.31411C0.633096 9.54907 0.778464 10.0872 1.22618 10.121C12.4578 10.9676 27.4048 5.2082 35.2291 1.58685C35.7258 1.35697 35.5298 0.647597 34.9845 0.694411Z" fill="#8B8B8B"/>
</g>
<defs>
<filter id="filter0_i" x="0.795532" y="0.6922" width="34.7191" height="13.5126" filterUnits="userSpaceOnUse" color-interpolation-filters="sRGB">
<feFlood flood-opacity="0" result="BackgroundImageFix"/>
<feBlend mode="normal" in="SourceGraphic" in2="BackgroundImageFix" result="shape"/>
<feColorMatrix in="SourceAlpha" type="matrix" values="0 0 0 0 0 0 0 0 0 0 0 0 0 0 0 0 0 0 127 0" result="hardAlpha"/>
<feOffset dy="4"/>
<feGaussianBlur stdDeviation="2"/>
<feComposite in2="hardAlpha" operator="arithmetic" k2="-1" k3="1"/>
<feColorMatrix type="matrix" values="0 0 0 0 0 0 0 0 0 0 0 0 0 0 0 0 0 0 0.25 0"/>
<feBlend mode="normal" in2="shape" result="effect1_innerShadow"/>
</filter>
</defs>
</svg>
