<svg width="851" height="242" viewBox="0 0 851 242" fill="none" xmlns="http://www.w3.org/2000/svg">
<g filter="url(#filter0_d)">
<rect x="6" y="6" width="837" height="228" rx="10" fill="#5C4E5F"/>
</g>
<path d="M318.5 32C176.5 -11.5 6 32.0001 6.00001 224C6.00001 229.524 10.4755 234.004 15.9999 234.01L832.99 234.828C838.517 234.834 843 230.355 843 224.828V194.338C734 223.338 440.066 69.2403 318.5 32Z" fill="white"/>
<path d="M539.789 61.153C539.789 57.9843 539.005 55.6323 537.437 54.097C535.901 52.529 533.892 51.745 531.41 51.745C530.822 51.745 530.266 51.7613 529.744 51.794C529.221 51.8267 528.698 51.892 528.176 51.99V70.218C528.6 70.316 529.107 70.3977 529.695 70.463C530.315 70.4957 530.903 70.512 531.459 70.512C534.007 70.512 536.032 69.7443 537.535 68.209C539.037 66.641 539.789 64.289 539.789 61.153ZM547.727 61.055C547.727 63.6683 547.335 65.955 546.551 67.915C545.767 69.875 544.656 71.5083 543.219 72.815C541.814 74.1217 540.099 75.1017 538.074 75.755C536.081 76.4083 533.86 76.735 531.41 76.735C530.854 76.735 530.217 76.7187 529.499 76.686C528.813 76.6533 528.094 76.588 527.343 76.49C526.624 76.4247 525.889 76.3103 525.138 76.147C524.386 76.0163 523.7 75.8367 523.08 75.608C521.381 74.9873 520.532 73.8767 520.532 72.276V48.952C520.532 48.2987 520.695 47.7923 521.022 47.433C521.381 47.0737 521.887 46.7797 522.541 46.551C523.88 46.1263 525.301 45.8487 526.804 45.718C528.306 45.5873 529.678 45.522 530.92 45.522C533.435 45.522 535.722 45.8323 537.78 46.453C539.838 47.0737 541.602 48.0373 543.072 49.344C544.542 50.618 545.685 52.235 546.502 54.195C547.318 56.1223 547.727 58.409 547.727 61.055ZM558.707 67.327C559.164 68.699 559.964 69.679 561.108 70.267C562.251 70.8223 563.574 71.1 565.077 71.1C566.449 71.1 567.739 70.9203 568.948 70.561C570.156 70.169 571.136 69.7443 571.888 69.287C572.378 69.6137 572.786 70.0383 573.113 70.561C573.439 71.0837 573.603 71.6553 573.603 72.276C573.603 73.0273 573.374 73.6807 572.917 74.236C572.459 74.7913 571.822 75.265 571.006 75.657C570.222 76.0163 569.274 76.2777 568.164 76.441C567.086 76.637 565.893 76.735 564.587 76.735C562.659 76.735 560.879 76.4737 559.246 75.951C557.612 75.3957 556.208 74.5953 555.032 73.55C553.856 72.472 552.925 71.1327 552.239 69.532C551.585 67.9313 551.259 66.053 551.259 63.897C551.259 61.8063 551.585 59.9933 552.239 58.458C552.925 56.9227 553.823 55.6487 554.934 54.636C556.077 53.6233 557.367 52.8883 558.805 52.431C560.275 51.941 561.777 51.696 563.313 51.696C564.979 51.696 566.498 51.9573 567.87 52.48C569.274 52.97 570.467 53.6723 571.447 54.587C572.459 55.5017 573.243 56.596 573.799 57.87C574.354 59.144 574.632 60.5323 574.632 62.035C574.632 63.0803 574.354 63.8643 573.799 64.387C573.243 64.9097 572.459 65.2527 571.447 65.416L558.707 67.327ZM563.362 57.233C561.957 57.233 560.781 57.674 559.834 58.556C558.919 59.4053 558.38 60.6467 558.217 62.28L567.576 60.761C567.51 59.9117 567.135 59.1113 566.449 58.36C565.763 57.6087 564.734 57.233 563.362 57.233ZM598.296 69.091C598.296 71.5083 597.398 73.403 595.601 74.775C593.804 76.1143 591.158 76.784 587.663 76.784C586.291 76.784 585.033 76.686 583.89 76.49C582.779 76.294 581.816 76 580.999 75.608C580.182 75.216 579.545 74.726 579.088 74.138C578.631 73.55 578.402 72.864 578.402 72.08C578.402 71.3613 578.549 70.757 578.843 70.267C579.137 69.7443 579.513 69.3197 579.97 68.993C580.917 69.5483 581.995 70.0383 583.204 70.463C584.413 70.8877 585.817 71.1 587.418 71.1C589.737 71.1 590.897 70.4467 590.897 69.14C590.897 68.5847 590.685 68.16 590.26 67.866C589.868 67.572 589.182 67.3107 588.202 67.082L586.242 66.641C583.563 66.0857 581.571 65.2363 580.264 64.093C578.957 62.917 578.304 61.2837 578.304 59.193C578.304 56.8737 579.235 55.0443 581.097 53.705C582.992 52.333 585.523 51.647 588.692 51.647C589.868 51.647 590.979 51.745 592.024 51.941C593.069 52.1043 593.968 52.3657 594.719 52.725C595.47 53.0843 596.058 53.5417 596.483 54.097C596.94 54.6197 597.169 55.2403 597.169 55.959C597.169 56.6123 597.038 57.2003 596.777 57.723C596.516 58.213 596.173 58.6213 595.748 58.948C595.487 58.7847 595.095 58.605 594.572 58.409C594.082 58.213 593.543 58.0333 592.955 57.87C592.367 57.7067 591.746 57.576 591.093 57.478C590.44 57.38 589.835 57.331 589.28 57.331C588.137 57.331 587.238 57.4943 586.585 57.821C585.964 58.115 585.654 58.5723 585.654 59.193C585.654 59.6503 585.834 60.0097 586.193 60.271C586.552 60.5323 587.206 60.7773 588.153 61.006L590.015 61.447C592.988 62.1003 595.111 63.0477 596.385 64.289C597.659 65.5303 598.296 67.131 598.296 69.091ZM610.37 75.951C610.043 76.049 609.586 76.1307 608.998 76.196C608.41 76.294 607.756 76.343 607.038 76.343C605.568 76.343 604.506 76.1143 603.853 75.657C603.232 75.167 602.922 74.236 602.922 72.864V52.725C603.248 52.627 603.706 52.529 604.294 52.431C604.882 52.333 605.535 52.284 606.254 52.284C607.724 52.284 608.769 52.529 609.39 53.019C610.043 53.509 610.37 54.44 610.37 55.812V75.951ZM602.481 45.669C602.481 44.5583 602.856 43.611 603.608 42.827C604.392 42.043 605.404 41.651 606.646 41.651C607.887 41.651 608.883 42.043 609.635 42.827C610.419 43.611 610.811 44.5583 610.811 45.669C610.811 46.8123 610.419 47.776 609.635 48.56C608.883 49.344 607.887 49.736 606.646 49.736C605.404 49.736 604.392 49.344 603.608 48.56C602.856 47.776 602.481 46.8123 602.481 45.669ZM630.921 74.089C630.268 74.383 629.533 74.628 628.716 74.824C627.899 74.9873 626.968 75.069 625.923 75.069C624.453 75.069 623.048 74.873 621.709 74.481C620.402 74.0563 619.259 73.3867 618.279 72.472C617.299 71.5573 616.515 70.365 615.927 68.895C615.339 67.425 615.045 65.6283 615.045 63.505C615.045 61.5777 615.339 59.879 615.927 58.409C616.515 56.939 617.348 55.714 618.426 54.734C619.537 53.7213 620.843 52.97 622.346 52.48C623.881 51.9573 625.58 51.696 627.442 51.696C629.271 51.696 630.937 51.941 632.44 52.431C633.975 52.8883 635.168 53.3947 636.017 53.95C636.638 54.3747 637.128 54.8647 637.487 55.42C637.846 55.9427 638.026 56.6123 638.026 57.429V75.902C638.026 77.6007 637.716 79.0707 637.095 80.312C636.474 81.5533 635.609 82.566 634.498 83.35C633.42 84.1667 632.146 84.771 630.676 85.163C629.206 85.555 627.622 85.751 625.923 85.751C624.159 85.751 622.624 85.604 621.317 85.31C620.043 85.016 619.03 84.6403 618.279 84.183C617.168 83.399 616.613 82.3537 616.613 81.047C616.613 80.361 616.76 79.724 617.054 79.136C617.348 78.5807 617.675 78.1723 618.034 77.911C618.949 78.4337 619.994 78.8747 621.17 79.234C622.379 79.626 623.653 79.822 624.992 79.822C626.821 79.822 628.259 79.4953 629.304 78.842C630.382 78.2213 630.921 77.176 630.921 75.706V74.089ZM627.246 69.434C628.03 69.434 628.7 69.336 629.255 69.14C629.843 68.944 630.366 68.6827 630.823 68.356V58.311C630.431 58.1477 629.99 57.9843 629.5 57.821C629.043 57.6577 628.455 57.576 627.736 57.576C626.168 57.576 624.894 58.066 623.914 59.046C622.967 59.9933 622.493 61.496 622.493 63.554C622.493 64.6647 622.607 65.5957 622.836 66.347C623.097 67.0983 623.44 67.7027 623.865 68.16C624.29 68.6173 624.78 68.944 625.335 69.14C625.923 69.336 626.56 69.434 627.246 69.434ZM658.781 60.957C658.781 59.8137 658.438 58.9643 657.752 58.409C657.066 57.8537 656.151 57.576 655.008 57.576C654.224 57.576 653.505 57.674 652.852 57.87C652.199 58.066 651.594 58.311 651.039 58.605V75.951C650.712 76.049 650.255 76.1307 649.667 76.196C649.079 76.294 648.426 76.343 647.707 76.343C646.237 76.343 645.175 76.1143 644.522 75.657C643.869 75.167 643.542 74.236 643.542 72.864V57.723C643.542 56.8737 643.722 56.1877 644.081 55.665C644.44 55.1423 644.947 54.6523 645.6 54.195C646.645 53.4437 647.985 52.8393 649.618 52.382C651.284 51.9247 653.113 51.696 655.106 51.696C658.667 51.696 661.411 52.48 663.338 54.048C665.298 55.616 666.278 57.8537 666.278 60.761V75.951C665.919 76.049 665.445 76.1307 664.857 76.196C664.269 76.294 663.616 76.343 662.897 76.343C661.427 76.343 660.365 76.1143 659.712 75.657C659.091 75.167 658.781 74.236 658.781 72.864V60.957ZM689.325 75.951C688.998 76.049 688.541 76.1307 687.953 76.196C687.365 76.294 686.711 76.343 685.993 76.343C684.523 76.343 683.461 76.1143 682.808 75.657C682.187 75.167 681.877 74.236 681.877 72.864V52.725C682.203 52.627 682.661 52.529 683.249 52.431C683.837 52.333 684.49 52.284 685.209 52.284C686.679 52.284 687.724 52.529 688.345 53.019C688.998 53.509 689.325 54.44 689.325 55.812V75.951ZM681.436 45.669C681.436 44.5583 681.811 43.611 682.563 42.827C683.347 42.043 684.359 41.651 685.601 41.651C686.842 41.651 687.838 42.043 688.59 42.827C689.374 43.611 689.766 44.5583 689.766 45.669C689.766 46.8123 689.374 47.776 688.59 48.56C687.838 49.344 686.842 49.736 685.601 49.736C684.359 49.736 683.347 49.344 682.563 48.56C681.811 47.776 681.436 46.8123 681.436 45.669ZM714.384 69.091C714.384 71.5083 713.486 73.403 711.689 74.775C709.892 76.1143 707.246 76.784 703.751 76.784C702.379 76.784 701.121 76.686 699.978 76.49C698.867 76.294 697.904 76 697.087 75.608C696.27 75.216 695.633 74.726 695.176 74.138C694.719 73.55 694.49 72.864 694.49 72.08C694.49 71.3613 694.637 70.757 694.931 70.267C695.225 69.7443 695.601 69.3197 696.058 68.993C697.005 69.5483 698.083 70.0383 699.292 70.463C700.501 70.8877 701.905 71.1 703.506 71.1C705.825 71.1 706.985 70.4467 706.985 69.14C706.985 68.5847 706.773 68.16 706.348 67.866C705.956 67.572 705.27 67.3107 704.29 67.082L702.33 66.641C699.651 66.0857 697.659 65.2363 696.352 64.093C695.045 62.917 694.392 61.2837 694.392 59.193C694.392 56.8737 695.323 55.0443 697.185 53.705C699.08 52.333 701.611 51.647 704.78 51.647C705.956 51.647 707.067 51.745 708.112 51.941C709.157 52.1043 710.056 52.3657 710.807 52.725C711.558 53.0843 712.146 53.5417 712.571 54.097C713.028 54.6197 713.257 55.2403 713.257 55.959C713.257 56.6123 713.126 57.2003 712.865 57.723C712.604 58.213 712.261 58.6213 711.836 58.948C711.575 58.7847 711.183 58.605 710.66 58.409C710.17 58.213 709.631 58.0333 709.043 57.87C708.455 57.7067 707.834 57.576 707.181 57.478C706.528 57.38 705.923 57.331 705.368 57.331C704.225 57.331 703.326 57.4943 702.673 57.821C702.052 58.115 701.742 58.5723 701.742 59.193C701.742 59.6503 701.922 60.0097 702.281 60.271C702.64 60.5323 703.294 60.7773 704.241 61.006L706.103 61.447C709.076 62.1003 711.199 63.0477 712.473 64.289C713.747 65.5303 714.384 67.131 714.384 69.091ZM736.071 68.209C736.071 69.1237 736.365 69.7933 736.953 70.218C737.541 70.61 738.358 70.806 739.403 70.806C739.893 70.806 740.416 70.757 740.971 70.659C741.526 70.5283 742 70.3813 742.392 70.218C742.686 70.5447 742.931 70.9203 743.127 71.345C743.323 71.7697 743.421 72.2597 743.421 72.815C743.421 73.9583 742.964 74.9057 742.049 75.657C741.167 76.3757 739.615 76.735 737.394 76.735C734.65 76.735 732.51 76.1143 730.975 74.873C729.44 73.599 728.672 71.541 728.672 68.699V46.698C729.031 46.6 729.505 46.502 730.093 46.404C730.681 46.2733 731.318 46.208 732.004 46.208C733.441 46.208 734.47 46.4693 735.091 46.992C735.744 47.482 736.071 48.3967 736.071 49.736V52.921H742.833C742.996 53.2477 743.16 53.6723 743.323 54.195C743.486 54.685 743.568 55.2077 743.568 55.763C743.568 56.8083 743.323 57.5597 742.833 58.017C742.376 58.4743 741.771 58.703 741.02 58.703H736.071V68.209ZM755.358 75.951C755.031 76.049 754.574 76.1307 753.986 76.196C753.398 76.294 752.744 76.343 752.026 76.343C750.556 76.343 749.494 76.1143 748.841 75.657C748.187 75.167 747.861 74.236 747.861 72.864V44.101C748.22 44.003 748.694 43.905 749.282 43.807C749.87 43.709 750.523 43.66 751.242 43.66C752.712 43.66 753.757 43.905 754.378 44.395C755.031 44.885 755.358 45.816 755.358 47.188V52.823C756.044 52.4963 756.811 52.235 757.661 52.039C758.543 51.8103 759.49 51.696 760.503 51.696C763.639 51.696 766.089 52.4963 767.853 54.097C769.649 55.665 770.548 58.0333 770.548 61.202V75.951C770.221 76.049 769.764 76.1307 769.176 76.196C768.588 76.294 767.934 76.343 767.216 76.343C765.746 76.343 764.684 76.1143 764.031 75.657C763.377 75.167 763.051 74.236 763.051 72.864V61.643C763.051 60.173 762.675 59.1277 761.924 58.507C761.205 57.8863 760.274 57.576 759.131 57.576C758.379 57.576 757.693 57.6903 757.073 57.919C756.452 58.115 755.88 58.36 755.358 58.654V75.951ZM782.509 67.327C782.966 68.699 783.766 69.679 784.91 70.267C786.053 70.8223 787.376 71.1 788.879 71.1C790.251 71.1 791.541 70.9203 792.75 70.561C793.958 70.169 794.938 69.7443 795.69 69.287C796.18 69.6137 796.588 70.0383 796.915 70.561C797.241 71.0837 797.405 71.6553 797.405 72.276C797.405 73.0273 797.176 73.6807 796.719 74.236C796.261 74.7913 795.624 75.265 794.808 75.657C794.024 76.0163 793.076 76.2777 791.966 76.441C790.888 76.637 789.695 76.735 788.389 76.735C786.461 76.735 784.681 76.4737 783.048 75.951C781.414 75.3957 780.01 74.5953 778.834 73.55C777.658 72.472 776.727 71.1327 776.041 69.532C775.387 67.9313 775.061 66.053 775.061 63.897C775.061 61.8063 775.387 59.9933 776.041 58.458C776.727 56.9227 777.625 55.6487 778.736 54.636C779.879 53.6233 781.169 52.8883 782.607 52.431C784.077 51.941 785.579 51.696 787.115 51.696C788.781 51.696 790.3 51.9573 791.672 52.48C793.076 52.97 794.269 53.6723 795.249 54.587C796.261 55.5017 797.045 56.596 797.601 57.87C798.156 59.144 798.434 60.5323 798.434 62.035C798.434 63.0803 798.156 63.8643 797.601 64.387C797.045 64.9097 796.261 65.2527 795.249 65.416L782.509 67.327ZM787.164 57.233C785.759 57.233 784.583 57.674 783.636 58.556C782.721 59.4053 782.182 60.6467 782.019 62.28L791.378 60.761C791.312 59.9117 790.937 59.1113 790.251 58.36C789.565 57.6087 788.536 57.233 787.164 57.233ZM689.914 129.48V152.951C689.555 153.049 689.048 153.131 688.395 153.196C687.742 153.294 687.056 153.343 686.337 153.343C684.802 153.343 683.724 153.082 683.103 152.559C682.482 152.036 682.172 151.089 682.172 149.717V129.48H674.479C674.283 129.153 674.087 128.729 673.891 128.206C673.728 127.683 673.646 127.112 673.646 126.491C673.646 125.38 673.891 124.58 674.381 124.09C674.871 123.567 675.541 123.306 676.39 123.306H697.803C698.032 123.633 698.228 124.057 698.391 124.58C698.554 125.103 698.636 125.674 698.636 126.295C698.636 127.373 698.391 128.173 697.901 128.696C697.411 129.219 696.741 129.48 695.892 129.48H689.914ZM707.934 152.951C707.608 153.049 707.15 153.131 706.562 153.196C705.974 153.294 705.321 153.343 704.602 153.343C703.132 153.343 702.071 153.114 701.417 152.657C700.764 152.167 700.437 151.236 700.437 149.864V134.919C700.437 134.004 700.666 133.22 701.123 132.567C701.581 131.914 702.218 131.342 703.034 130.852C704.112 130.199 705.403 129.692 706.905 129.333C708.441 128.941 710.041 128.745 711.707 128.745C715.105 128.745 716.803 129.888 716.803 132.175C716.803 132.73 716.722 133.237 716.558 133.694C716.395 134.151 716.215 134.543 716.019 134.87C715.268 134.707 714.353 134.625 713.275 134.625C712.328 134.625 711.381 134.739 710.433 134.968C709.486 135.197 708.653 135.507 707.934 135.899V152.951ZM725.852 144.327C726.31 145.699 727.11 146.679 728.253 147.267C729.397 147.822 730.72 148.1 732.222 148.1C733.594 148.1 734.885 147.92 736.093 147.561C737.302 147.169 738.282 146.744 739.033 146.287C739.523 146.614 739.932 147.038 740.258 147.561C740.585 148.084 740.748 148.655 740.748 149.276C740.748 150.027 740.52 150.681 740.062 151.236C739.605 151.791 738.968 152.265 738.151 152.657C737.367 153.016 736.42 153.278 735.309 153.441C734.231 153.637 733.039 153.735 731.732 153.735C729.805 153.735 728.025 153.474 726.391 152.951C724.758 152.396 723.353 151.595 722.177 150.55C721.001 149.472 720.07 148.133 719.384 146.532C718.731 144.931 718.404 143.053 718.404 140.897C718.404 138.806 718.731 136.993 719.384 135.458C720.07 133.923 720.969 132.649 722.079 131.636C723.223 130.623 724.513 129.888 725.95 129.431C727.42 128.941 728.923 128.696 730.458 128.696C732.124 128.696 733.643 128.957 735.015 129.48C736.42 129.97 737.612 130.672 738.592 131.587C739.605 132.502 740.389 133.596 740.944 134.87C741.5 136.144 741.777 137.532 741.777 139.035C741.777 140.08 741.5 140.864 740.944 141.387C740.389 141.91 739.605 142.253 738.592 142.416L725.852 144.327ZM730.507 134.233C729.103 134.233 727.927 134.674 726.979 135.556C726.065 136.405 725.526 137.647 725.362 139.28L734.721 137.761C734.656 136.912 734.28 136.111 733.594 135.36C732.908 134.609 731.879 134.233 730.507 134.233ZM761.327 137.957C761.327 136.814 760.984 135.964 760.298 135.409C759.612 134.854 758.697 134.576 757.554 134.576C756.77 134.576 756.051 134.674 755.398 134.87C754.744 135.066 754.14 135.311 753.585 135.605V152.951C753.258 153.049 752.801 153.131 752.213 153.196C751.625 153.294 750.971 153.343 750.253 153.343C748.783 153.343 747.721 153.114 747.068 152.657C746.414 152.167 746.088 151.236 746.088 149.864V134.723C746.088 133.874 746.267 133.188 746.627 132.665C746.986 132.142 747.492 131.652 748.146 131.195C749.191 130.444 750.53 129.839 752.164 129.382C753.83 128.925 755.659 128.696 757.652 128.696C761.212 128.696 763.956 129.48 765.884 131.048C767.844 132.616 768.824 134.854 768.824 137.761V152.951C768.464 153.049 767.991 153.131 767.403 153.196C766.815 153.294 766.161 153.343 765.443 153.343C763.973 153.343 762.911 153.114 762.258 152.657C761.637 152.167 761.327 151.236 761.327 149.864V137.957ZM785.638 128.696C786.389 128.696 787.092 128.761 787.745 128.892C788.431 128.99 789.052 129.137 789.607 129.333V121.101C789.966 121.003 790.44 120.905 791.028 120.807C791.616 120.709 792.269 120.66 792.988 120.66C794.458 120.66 795.503 120.905 796.124 121.395C796.777 121.885 797.104 122.816 797.104 124.188V148.051C797.104 148.835 796.941 149.505 796.614 150.06C796.287 150.583 795.765 151.073 795.046 151.53C794.131 152.085 792.955 152.592 791.518 153.049C790.081 153.506 788.431 153.735 786.569 153.735C782.453 153.735 779.203 152.706 776.818 150.648C774.466 148.557 773.29 145.438 773.29 141.289C773.29 139.133 773.6 137.271 774.221 135.703C774.874 134.135 775.756 132.828 776.867 131.783C777.978 130.738 779.284 129.97 780.787 129.48C782.29 128.957 783.907 128.696 785.638 128.696ZM789.656 135.311C789.231 135.115 788.758 134.952 788.235 134.821C787.745 134.658 787.222 134.576 786.667 134.576C784.903 134.576 783.498 135.115 782.453 136.193C781.408 137.271 780.885 138.986 780.885 141.338C780.885 143.592 781.375 145.242 782.355 146.287C783.368 147.3 784.756 147.806 786.52 147.806C787.206 147.806 787.81 147.741 788.333 147.61C788.888 147.447 789.329 147.267 789.656 147.071V135.311Z" fill="white"/>
<g filter="url(#filter1_dd)">
<path d="M354.376 224C296.789 201.647 282.598 150.812 284.106 118.065C284.818 102.588 301.668 98.8607 316.999 101.095C336.952 104.004 359.137 100.046 370.898 96.5467C379.578 95.9327 390.032 85.8767 394.174 80.9254C426.453 61.7826 445.766 103.454 435.006 120.295C432.576 124.099 423.076 135.72 419.43 141.83L354.376 224Z" fill="#F9784F"/>
<path d="M354.376 224C296.789 201.647 282.598 150.812 284.106 118.065C284.818 102.588 301.668 98.8607 316.999 101.095C336.952 104.004 359.137 100.046 370.898 96.5467C379.578 95.9327 390.032 85.8767 394.174 80.9254C426.453 61.7826 445.766 103.454 435.006 120.295C432.576 124.099 423.076 135.72 419.43 141.83L354.376 224Z" stroke="#707070"/>
</g>
<g filter="url(#filter2_dd)">
<path d="M502.984 227C468.648 213.66 456.939 185.456 455.228 163.642C454.016 148.187 470.922 143.586 486.424 143.806C497.295 143.961 507.959 141.895 514.249 140.022C520.167 139.603 527.294 132.74 530.118 129.361C552.127 116.298 565.295 144.736 557.959 156.228C556.302 158.824 549.825 166.755 547.338 170.925L502.984 227Z" fill="#129ECB"/>
<path d="M502.984 227C468.648 213.66 456.939 185.456 455.228 163.642C454.016 148.187 470.922 143.586 486.424 143.806C497.295 143.961 507.959 141.895 514.249 140.022C520.167 139.603 527.294 132.74 530.118 129.361C552.127 116.298 565.295 144.736 557.959 156.228C556.302 158.824 549.825 166.755 547.338 170.925L502.984 227Z" stroke="#707070"/>
</g>
<g filter="url(#filter3_d)">
<path d="M380.351 129.568C379.77 109.868 387.509 72.9748 415.491 91.6396C461.351 122.228 380.351 129.568 380.351 129.568Z" fill="white"/>
</g>
<g filter="url(#filter4_d)">
<path d="M520.509 162.375C520.111 148.893 525.407 123.645 544.558 136.418C575.942 157.352 520.509 162.375 520.509 162.375Z" fill="white"/>
</g>
<g filter="url(#filter5_dd)">
<path d="M169.968 227C85.1875 194.225 69.382 116.363 75.0232 73.0051C77.0166 57.6838 93.8918 54.4231 108.892 58.125C138.358 65.3966 174.439 59.2552 192.498 53.9046C204.334 53.0707 218.589 39.4136 224.237 32.6893C268.254 6.69126 294.59 63.2861 279.918 86.1569C276.603 91.3238 263.649 107.107 258.677 115.405L169.968 227Z" fill="#361643"/>
<path d="M169.968 227C85.1875 194.225 69.382 116.363 75.0232 73.0051C77.0166 57.6838 93.8918 54.4231 108.892 58.125C138.358 65.3966 174.439 59.2552 192.498 53.9046C204.334 53.0707 218.589 39.4136 224.237 32.6893C268.254 6.69126 294.59 63.2861 279.918 86.1569C276.603 91.3238 263.649 107.107 258.677 115.405L169.968 227Z" stroke="#707070"/>
</g>
<g filter="url(#filter6_d)">
<path d="M217.909 100.07C212.09 75.5203 212.258 27.2653 252.165 43.4355C317.567 69.9358 217.909 100.07 217.909 100.07Z" fill="white"/>
</g>
<g filter="url(#filter7_d)">
<path d="M174.985 203.959L173.696 204.98C173.327 204.412 173.173 203.858 173.232 203.318C173.291 202.778 173.61 202.179 174.189 201.522C174.716 200.925 175.179 200.544 175.579 200.378C175.976 200.209 176.336 200.163 176.659 200.238C176.981 200.308 177.433 200.599 178.013 201.111L179.562 202.503C180.007 202.895 180.353 203.164 180.602 203.31C180.851 203.45 181.148 203.568 181.492 203.664L180.325 204.987C180.205 204.944 180.036 204.87 179.817 204.767C179.718 204.719 179.651 204.689 179.617 204.676C179.638 205.101 179.589 205.492 179.471 205.85C179.352 206.208 179.163 206.535 178.903 206.83C178.443 207.351 177.94 207.637 177.391 207.689C176.846 207.739 176.357 207.573 175.926 207.192C175.64 206.94 175.446 206.648 175.344 206.316C175.239 205.98 175.236 205.639 175.334 205.291C175.432 204.937 175.641 204.489 175.96 203.947C176.395 203.219 176.667 202.689 176.778 202.358L176.645 202.241C176.388 202.014 176.149 201.916 175.93 201.948C175.707 201.977 175.44 202.168 175.129 202.52C174.919 202.758 174.803 202.986 174.78 203.203C174.755 203.417 174.823 203.669 174.985 203.959ZM177.649 203.127C177.555 203.348 177.384 203.68 177.136 204.121C176.888 204.562 176.752 204.874 176.727 205.055C176.697 205.339 176.777 205.565 176.967 205.733C177.155 205.898 177.378 205.971 177.638 205.952C177.897 205.932 178.122 205.815 178.313 205.599C178.525 205.358 178.649 205.058 178.683 204.699C178.706 204.43 178.652 204.194 178.522 203.989C178.439 203.854 178.237 203.644 177.916 203.362L177.649 203.127ZM179.393 195.853L180.459 196.794L179.653 197.708L181.69 199.505C182.103 199.869 182.351 200.073 182.435 200.119C182.518 200.159 182.609 200.168 182.706 200.147C182.807 200.123 182.896 200.066 182.975 199.977C183.084 199.854 183.199 199.636 183.321 199.326L184.459 200.127C184.318 200.556 184.074 200.967 183.727 201.36C183.514 201.602 183.283 201.784 183.033 201.908C182.779 202.028 182.549 202.079 182.341 202.059C182.132 202.033 181.903 201.941 181.653 201.783C181.473 201.674 181.146 201.411 180.673 200.994L178.469 199.05L177.927 199.664L176.861 198.724L177.402 198.11L176.398 197.224L176.801 195.193L178.586 196.767L179.393 195.853ZM182.395 197.401C181.951 197.009 181.617 196.52 181.395 195.934C181.172 195.349 181.127 194.759 181.261 194.166C181.398 193.57 181.684 193.024 182.121 192.529C182.796 191.765 183.598 191.357 184.527 191.308C185.453 191.256 186.295 191.565 187.054 192.234C187.819 192.908 188.235 193.716 188.303 194.656C188.371 195.59 188.074 196.432 187.414 197.181C187.005 197.644 186.51 197.994 185.928 198.232C185.349 198.466 184.761 198.515 184.165 198.378C183.566 198.239 182.976 197.913 182.395 197.401ZM183.676 196.093C184.177 196.535 184.666 196.755 185.143 196.752C185.619 196.749 186.011 196.573 186.319 196.224C186.627 195.875 186.751 195.465 186.692 194.995C186.635 194.522 186.353 194.061 185.845 193.614C185.35 193.177 184.864 192.96 184.388 192.963C183.914 192.963 183.523 193.137 183.215 193.486C182.907 193.835 182.782 194.246 182.838 194.72C182.895 195.193 183.174 195.65 183.676 196.093ZM185.38 189.065L186.468 187.832L187.158 188.44C187.011 187.526 187.206 186.764 187.743 186.155C188.029 185.831 188.343 185.609 188.686 185.489C189.03 185.368 189.403 185.351 189.807 185.436C189.734 184.976 189.743 184.559 189.837 184.184C189.93 183.81 190.106 183.476 190.363 183.184C190.691 182.813 191.044 182.566 191.423 182.443C191.799 182.318 192.189 182.32 192.593 182.451C192.89 182.549 193.28 182.811 193.762 183.237L196.994 186.088L195.814 187.425L192.925 184.877C192.423 184.434 192.059 184.195 191.832 184.158C191.532 184.114 191.269 184.221 191.042 184.478C190.877 184.665 190.779 184.891 190.748 185.157C190.716 185.423 190.78 185.69 190.937 185.959C191.092 186.225 191.407 186.568 191.883 186.988L194.311 189.13L193.131 190.467L190.361 188.024C189.869 187.59 189.531 187.334 189.346 187.255C189.161 187.177 188.989 187.158 188.829 187.198C188.673 187.235 188.519 187.339 188.368 187.51C188.186 187.716 188.078 187.951 188.043 188.214C188.009 188.477 188.064 188.737 188.209 188.995C188.357 189.25 188.674 189.591 189.159 190.019L191.616 192.186L190.436 193.524L185.38 189.065ZM196.316 183.949L197.295 182.426C197.606 182.598 197.907 182.658 198.197 182.603C198.484 182.546 198.766 182.361 199.044 182.047C199.349 181.701 199.515 181.384 199.542 181.098C199.556 180.902 199.489 180.738 199.34 180.607C199.239 180.517 199.126 180.475 199.004 180.48C198.882 180.49 198.691 180.588 198.433 180.772C197.243 181.641 196.423 182.133 195.971 182.248C195.345 182.407 194.79 182.273 194.304 181.845C193.866 181.458 193.651 180.961 193.658 180.352C193.664 179.742 193.988 179.075 194.629 178.348C195.239 177.656 195.806 177.241 196.328 177.103C196.85 176.966 197.387 177.028 197.94 177.29L197.061 178.757C196.817 178.638 196.575 178.608 196.336 178.668C196.099 178.725 195.858 178.893 195.612 179.172C195.301 179.524 195.128 179.82 195.092 180.059C195.072 180.222 195.118 180.353 195.229 180.451C195.324 180.535 195.444 180.562 195.589 180.532C195.784 180.489 196.276 180.184 197.065 179.616C197.857 179.045 198.495 178.722 198.979 178.646C199.463 178.577 199.918 178.73 200.343 179.105C200.807 179.514 201.034 180.058 201.026 180.74C201.018 181.421 200.679 182.14 200.01 182.899C199.403 183.588 198.781 184.01 198.147 184.167C197.515 184.321 196.904 184.248 196.316 183.949Z" fill="white"/>
</g>
<g filter="url(#filter8_d)">
<path d="M351.228 207.889L350.236 208.674C349.953 208.238 349.834 207.811 349.879 207.396C349.924 206.98 350.17 206.52 350.616 206.014C351.021 205.555 351.377 205.262 351.685 205.134C351.99 205.004 352.267 204.969 352.515 205.027C352.763 205.08 353.111 205.304 353.557 205.698L354.749 206.769C355.09 207.07 355.357 207.277 355.549 207.39C355.74 207.498 355.968 207.588 356.233 207.662L355.336 208.68C355.243 208.646 355.113 208.59 354.944 208.51C354.868 208.474 354.817 208.45 354.791 208.44C354.807 208.767 354.769 209.068 354.678 209.343C354.587 209.619 354.442 209.87 354.241 210.097C353.888 210.498 353.501 210.718 353.079 210.758C352.659 210.796 352.283 210.669 351.951 210.376C351.732 210.182 351.583 209.957 351.504 209.702C351.424 209.444 351.421 209.181 351.496 208.913C351.572 208.641 351.732 208.297 351.978 207.88C352.312 207.319 352.522 206.912 352.607 206.657L352.505 206.567C352.307 206.393 352.124 206.318 351.954 206.342C351.783 206.364 351.578 206.511 351.339 206.782C351.177 206.965 351.088 207.14 351.07 207.307C351.051 207.472 351.103 207.666 351.228 207.889ZM353.277 207.248C353.205 207.419 353.073 207.674 352.883 208.013C352.692 208.353 352.587 208.592 352.568 208.732C352.545 208.95 352.606 209.124 352.753 209.253C352.897 209.38 353.069 209.436 353.268 209.422C353.468 209.407 353.641 209.316 353.788 209.15C353.951 208.965 354.046 208.734 354.073 208.458C354.09 208.251 354.048 208.07 353.949 207.912C353.884 207.808 353.729 207.647 353.482 207.429L353.277 207.248ZM354.618 201.653L355.439 202.377L354.818 203.08L356.386 204.462C356.703 204.742 356.894 204.9 356.958 204.935C357.023 204.966 357.092 204.973 357.167 204.957C357.245 204.938 357.313 204.894 357.374 204.826C357.458 204.731 357.546 204.564 357.64 204.325L358.516 204.941C358.407 205.271 358.219 205.587 357.952 205.89C357.789 206.075 357.611 206.216 357.418 206.311C357.224 206.404 357.046 206.442 356.886 206.427C356.726 206.407 356.549 206.336 356.357 206.215C356.218 206.131 355.967 205.929 355.603 205.608L353.908 204.113L353.491 204.585L352.671 203.862L353.087 203.389L352.315 202.708L352.625 201.145L353.998 202.357L354.618 201.653ZM356.928 202.844C356.586 202.543 356.329 202.167 356.158 201.716C355.987 201.266 355.953 200.812 356.056 200.356C356.161 199.897 356.381 199.478 356.717 199.097C357.236 198.508 357.853 198.195 358.568 198.157C359.28 198.117 359.928 198.355 360.512 198.869C361.1 199.388 361.42 200.009 361.472 200.732C361.524 201.451 361.296 202.098 360.788 202.675C360.474 203.031 360.093 203.301 359.645 203.483C359.2 203.663 358.748 203.701 358.289 203.596C357.828 203.489 357.374 203.238 356.928 202.844ZM357.913 201.838C358.299 202.178 358.675 202.347 359.041 202.345C359.408 202.343 359.71 202.207 359.946 201.939C360.183 201.67 360.279 201.355 360.233 200.994C360.189 200.63 359.972 200.275 359.582 199.931C359.201 199.595 358.827 199.428 358.461 199.43C358.096 199.43 357.796 199.564 357.559 199.833C357.322 200.101 357.225 200.418 357.269 200.782C357.312 201.145 357.527 201.498 357.913 201.838ZM359.224 196.431L360.061 195.483L360.592 195.951C360.478 195.248 360.628 194.662 361.042 194.193C361.261 193.944 361.503 193.774 361.767 193.681C362.031 193.588 362.319 193.575 362.63 193.641C362.573 193.287 362.58 192.966 362.652 192.678C362.724 192.389 362.859 192.133 363.057 191.908C363.309 191.623 363.581 191.433 363.872 191.338C364.162 191.242 364.462 191.244 364.772 191.344C365.001 191.42 365.301 191.621 365.672 191.949L368.158 194.142L367.25 195.171L365.028 193.21C364.642 192.87 364.362 192.686 364.187 192.657C363.956 192.623 363.754 192.705 363.58 192.903C363.453 193.047 363.377 193.221 363.353 193.426C363.329 193.63 363.378 193.836 363.499 194.043C363.618 194.248 363.86 194.511 364.227 194.834L366.094 196.482L365.187 197.511L363.055 195.631C362.677 195.297 362.417 195.1 362.274 195.04C362.132 194.98 362 194.965 361.877 194.996C361.757 195.024 361.639 195.104 361.522 195.236C361.382 195.394 361.299 195.575 361.273 195.777C361.246 195.98 361.289 196.18 361.4 196.378C361.514 196.574 361.758 196.837 362.131 197.166L364.021 198.833L363.113 199.862L359.224 196.431ZM367.636 192.497L368.39 191.325C368.629 191.458 368.86 191.503 369.083 191.461C369.304 191.418 369.521 191.275 369.734 191.033C369.969 190.767 370.097 190.524 370.118 190.303C370.129 190.153 370.077 190.027 369.962 189.926C369.884 189.857 369.798 189.824 369.704 189.828C369.61 189.836 369.463 189.911 369.265 190.052C368.349 190.721 367.718 191.1 367.371 191.188C366.89 191.311 366.462 191.207 366.089 190.878C365.752 190.581 365.586 190.198 365.591 189.729C365.596 189.261 365.846 188.747 366.339 188.188C366.808 187.656 367.244 187.337 367.645 187.231C368.047 187.125 368.46 187.173 368.886 187.374L368.209 188.503C368.021 188.411 367.835 188.388 367.651 188.434C367.47 188.478 367.284 188.607 367.095 188.822C366.856 189.093 366.722 189.32 366.695 189.504C366.679 189.63 366.714 189.73 366.8 189.806C366.873 189.87 366.966 189.891 367.077 189.868C367.227 189.835 367.606 189.601 368.213 189.164C368.822 188.724 369.312 188.475 369.685 188.417C370.057 188.364 370.407 188.482 370.734 188.77C371.091 189.085 371.266 189.504 371.259 190.028C371.253 190.552 370.992 191.105 370.478 191.689C370.011 192.219 369.533 192.544 369.044 192.664C368.558 192.782 368.089 192.726 367.636 192.497Z" fill="white"/>
</g>
<g filter="url(#filter9_d)">
<path d="M501.01 213.497L500.217 214.125C499.99 213.776 499.895 213.435 499.931 213.103C499.967 212.77 500.164 212.402 500.52 211.998C500.844 211.63 501.129 211.396 501.376 211.294C501.62 211.19 501.842 211.161 502.04 211.208C502.238 211.25 502.516 211.43 502.874 211.745L503.827 212.601C504.1 212.842 504.314 213.008 504.467 213.098C504.62 213.184 504.802 213.257 505.015 213.315L504.296 214.13C504.223 214.103 504.118 214.058 503.983 213.994C503.922 213.965 503.882 213.946 503.861 213.938C503.873 214.2 503.843 214.44 503.77 214.661C503.698 214.881 503.581 215.082 503.421 215.264C503.138 215.584 502.828 215.761 502.491 215.793C502.155 215.823 501.854 215.721 501.589 215.487C501.413 215.332 501.294 215.152 501.231 214.947C501.167 214.741 501.164 214.531 501.225 214.317C501.285 214.099 501.414 213.823 501.61 213.49C501.877 213.042 502.045 212.716 502.114 212.512L502.032 212.44C501.873 212.3 501.727 212.24 501.591 212.26C501.454 212.278 501.29 212.395 501.099 212.612C500.969 212.758 500.898 212.898 500.884 213.032C500.868 213.164 500.91 213.319 501.01 213.497ZM502.65 212.985C502.592 213.121 502.487 213.325 502.334 213.597C502.181 213.869 502.097 214.06 502.082 214.172C502.063 214.346 502.113 214.485 502.23 214.589C502.345 214.69 502.483 214.735 502.642 214.723C502.802 214.711 502.941 214.639 503.058 214.506C503.189 214.358 503.265 214.173 503.286 213.952C503.3 213.787 503.267 213.642 503.187 213.516C503.135 213.432 503.011 213.304 502.814 213.13L502.65 212.985ZM503.722 208.509L504.379 209.088L503.883 209.65L505.136 210.756C505.39 210.98 505.543 211.106 505.595 211.134C505.646 211.159 505.702 211.164 505.762 211.151C505.823 211.136 505.879 211.102 505.927 211.047C505.994 210.971 506.065 210.837 506.14 210.646L506.84 211.139C506.753 211.403 506.603 211.656 506.39 211.898C506.259 212.046 506.116 212.159 505.962 212.235C505.807 212.309 505.665 212.34 505.537 212.328C505.408 212.312 505.267 212.255 505.114 212.158C505.002 212.091 504.801 211.929 504.51 211.673L503.154 210.476L502.821 210.854L502.164 210.275L502.498 209.898L501.879 209.352L502.128 208.102L503.226 209.071L503.722 208.509ZM505.57 209.461C505.297 209.22 505.091 208.919 504.954 208.559C504.817 208.199 504.79 207.836 504.872 207.471C504.956 207.104 505.133 206.768 505.401 206.464C505.817 205.993 506.31 205.742 506.882 205.712C507.452 205.68 507.97 205.87 508.437 206.282C508.908 206.697 509.164 207.194 509.206 207.772C509.247 208.347 509.065 208.865 508.658 209.326C508.407 209.611 508.102 209.827 507.744 209.973C507.388 210.117 507.026 210.147 506.659 210.063C506.29 209.977 505.927 209.777 505.57 209.461ZM506.358 208.656C506.667 208.929 506.968 209.064 507.261 209.062C507.554 209.06 507.795 208.952 507.985 208.737C508.174 208.522 508.251 208.27 508.214 207.981C508.179 207.69 508.006 207.406 507.693 207.131C507.389 206.862 507.09 206.729 506.796 206.73C506.505 206.73 506.264 206.838 506.075 207.052C505.885 207.267 505.808 207.52 505.843 207.811C505.878 208.103 506.049 208.384 506.358 208.656ZM507.407 204.331L508.076 203.573L508.501 203.947C508.41 203.385 508.53 202.916 508.861 202.541C509.037 202.342 509.23 202.205 509.442 202.131C509.653 202.057 509.883 202.046 510.131 202.099C510.086 201.816 510.092 201.559 510.15 201.328C510.207 201.098 510.315 200.893 510.474 200.713C510.675 200.484 510.892 200.332 511.126 200.257C511.357 200.18 511.597 200.181 511.846 200.261C512.028 200.322 512.268 200.483 512.565 200.745L514.554 202.499L513.828 203.323L512.05 201.754C511.741 201.482 511.517 201.335 511.377 201.312C511.193 201.285 511.031 201.35 510.892 201.509C510.79 201.624 510.729 201.763 510.71 201.927C510.691 202.09 510.73 202.255 510.827 202.42C510.922 202.584 511.116 202.795 511.409 203.054L512.903 204.371L512.177 205.195L510.472 203.691C510.169 203.424 509.961 203.266 509.847 203.218C509.734 203.17 509.628 203.158 509.53 203.183C509.433 203.205 509.339 203.269 509.246 203.375C509.134 203.502 509.067 203.646 509.046 203.808C509.025 203.97 509.059 204.13 509.148 204.289C509.239 204.445 509.434 204.655 509.733 204.919L511.244 206.252L510.518 207.075L507.407 204.331ZM514.137 201.183L514.74 200.246C514.931 200.352 515.116 200.389 515.294 200.355C515.471 200.32 515.645 200.206 515.815 200.013C516.003 199.8 516.105 199.605 516.122 199.429C516.131 199.308 516.09 199.208 515.998 199.127C515.935 199.071 515.866 199.045 515.791 199.048C515.716 199.055 515.598 199.115 515.44 199.228C514.707 199.763 514.202 200.066 513.925 200.137C513.54 200.235 513.198 200.152 512.899 199.888C512.629 199.651 512.497 199.344 512.501 198.969C512.505 198.595 512.704 198.184 513.099 197.736C513.474 197.311 513.823 197.055 514.144 196.971C514.465 196.886 514.796 196.924 515.136 197.086L514.595 197.989C514.445 197.915 514.296 197.897 514.149 197.933C514.004 197.968 513.855 198.072 513.703 198.244C513.512 198.46 513.406 198.642 513.383 198.79C513.371 198.89 513.399 198.97 513.468 199.031C513.526 199.082 513.6 199.099 513.689 199.08C513.81 199.054 514.112 198.867 514.598 198.517C515.085 198.165 515.478 197.966 515.775 197.92C516.073 197.877 516.353 197.971 516.615 198.202C516.9 198.454 517.04 198.789 517.035 199.208C517.03 199.627 516.822 200.07 516.41 200.537C516.036 200.961 515.654 201.221 515.263 201.318C514.874 201.412 514.499 201.367 514.137 201.183Z" fill="white"/>
</g>
<path d="M443.099 228V217.263H444.52V222.587L449.852 217.263H451.778L447.273 221.613L451.976 228H450.101L446.277 222.565L444.52 224.279V228H443.099ZM453.001 218.779V217.263H454.319V218.779H453.001ZM453.001 228V220.222H454.319V228H453.001ZM461.38 228V227.019C460.887 227.79 460.162 228.176 459.205 228.176C458.584 228.176 458.013 228.005 457.491 227.663C456.973 227.321 456.57 226.845 456.282 226.235C455.999 225.62 455.857 224.914 455.857 224.118C455.857 223.342 455.987 222.639 456.246 222.009C456.504 221.374 456.893 220.888 457.41 220.551C457.928 220.214 458.506 220.046 459.146 220.046C459.615 220.046 460.032 220.146 460.398 220.346C460.765 220.542 461.062 220.798 461.292 221.115V217.263H462.603V228H461.38ZM457.212 224.118C457.212 225.114 457.422 225.859 457.842 226.352C458.262 226.845 458.758 227.092 459.329 227.092C459.905 227.092 460.394 226.857 460.794 226.389C461.199 225.915 461.402 225.195 461.402 224.228C461.402 223.164 461.197 222.382 460.787 221.884C460.376 221.386 459.871 221.137 459.271 221.137C458.685 221.137 458.194 221.376 457.798 221.855C457.408 222.333 457.212 223.088 457.212 224.118ZM464.156 225.678L465.459 225.473C465.533 225.996 465.735 226.396 466.067 226.674C466.404 226.953 466.873 227.092 467.474 227.092C468.079 227.092 468.528 226.97 468.821 226.726C469.114 226.477 469.261 226.186 469.261 225.854C469.261 225.556 469.131 225.322 468.873 225.151C468.692 225.034 468.243 224.885 467.525 224.704C466.558 224.46 465.887 224.25 465.511 224.074C465.14 223.894 464.856 223.647 464.661 223.334C464.471 223.017 464.375 222.668 464.375 222.287C464.375 221.94 464.454 221.621 464.61 221.328C464.771 221.03 464.988 220.783 465.262 220.588C465.467 220.437 465.745 220.31 466.097 220.207C466.453 220.1 466.834 220.046 467.239 220.046C467.85 220.046 468.384 220.134 468.843 220.31C469.307 220.485 469.649 220.725 469.869 221.027C470.088 221.325 470.24 221.726 470.323 222.229L469.034 222.404C468.975 222.004 468.804 221.691 468.521 221.467C468.243 221.242 467.847 221.13 467.334 221.13C466.729 221.13 466.297 221.23 466.038 221.43C465.779 221.63 465.65 221.865 465.65 222.133C465.65 222.304 465.704 222.458 465.811 222.595C465.918 222.736 466.087 222.854 466.316 222.946C466.448 222.995 466.836 223.107 467.481 223.283C468.414 223.532 469.063 223.737 469.429 223.898C469.8 224.055 470.091 224.284 470.301 224.587C470.511 224.89 470.616 225.266 470.616 225.715C470.616 226.154 470.486 226.569 470.228 226.96C469.974 227.346 469.605 227.646 469.122 227.861C468.638 228.071 468.091 228.176 467.481 228.176C466.47 228.176 465.699 227.966 465.167 227.546C464.639 227.126 464.302 226.503 464.156 225.678Z" fill="#757575"/>
<path d="M291.889 225V215.53H288.352V214.263H296.862V215.53H293.31V225H291.889ZM301.813 222.495L303.176 222.664C302.961 223.459 302.563 224.077 301.982 224.517C301.401 224.956 300.659 225.176 299.755 225.176C298.618 225.176 297.714 224.827 297.045 224.128C296.381 223.425 296.049 222.441 296.049 221.177C296.049 219.868 296.386 218.853 297.06 218.13C297.734 217.407 298.608 217.046 299.682 217.046C300.722 217.046 301.572 217.4 302.231 218.108C302.89 218.816 303.22 219.812 303.22 221.096C303.22 221.174 303.217 221.292 303.212 221.448H297.412C297.46 222.302 297.702 222.957 298.137 223.411C298.571 223.865 299.113 224.092 299.763 224.092C300.246 224.092 300.659 223.965 301 223.711C301.342 223.457 301.613 223.052 301.813 222.495ZM297.485 220.364H301.828C301.77 219.709 301.604 219.219 301.33 218.892C300.91 218.384 300.366 218.13 299.697 218.13C299.091 218.13 298.581 218.333 298.166 218.738C297.756 219.143 297.529 219.685 297.485 220.364ZM310.163 222.495L311.525 222.664C311.311 223.459 310.913 224.077 310.332 224.517C309.75 224.956 309.008 225.176 308.105 225.176C306.967 225.176 306.064 224.827 305.395 224.128C304.731 223.425 304.399 222.441 304.399 221.177C304.399 219.868 304.736 218.853 305.41 218.13C306.083 217.407 306.958 217.046 308.032 217.046C309.072 217.046 309.921 217.4 310.581 218.108C311.24 218.816 311.569 219.812 311.569 221.096C311.569 221.174 311.567 221.292 311.562 221.448H305.761C305.81 222.302 306.052 222.957 306.486 223.411C306.921 223.865 307.463 224.092 308.112 224.092C308.596 224.092 309.008 223.965 309.35 223.711C309.692 223.457 309.963 223.052 310.163 222.495ZM305.834 220.364H310.178C310.119 219.709 309.953 219.219 309.68 218.892C309.26 218.384 308.715 218.13 308.046 218.13C307.441 218.13 306.931 218.333 306.516 218.738C306.105 219.143 305.878 219.685 305.834 220.364ZM313.188 225V217.222H314.375V218.328C314.946 217.473 315.771 217.046 316.85 217.046C317.319 217.046 317.749 217.131 318.139 217.302C318.535 217.468 318.83 217.688 319.025 217.961C319.221 218.235 319.357 218.56 319.436 218.936C319.484 219.18 319.509 219.607 319.509 220.217V225H318.19V220.269C318.19 219.731 318.139 219.331 318.037 219.067C317.934 218.799 317.751 218.586 317.487 218.43C317.229 218.269 316.923 218.188 316.572 218.188C316.01 218.188 315.524 218.367 315.114 218.723C314.709 219.08 314.506 219.756 314.506 220.752V225H313.188Z" fill="#757575"/>
<g filter="url(#filter10_d)">
<path d="M85.978 228L90.1016 217.263H91.6323L96.0269 228H94.4082L93.1558 224.748H88.666L87.4868 228H85.978ZM89.0762 223.591H92.7163L91.5957 220.617C91.2539 219.714 91 218.972 90.834 218.391C90.6973 219.079 90.5044 219.763 90.2554 220.441L89.0762 223.591ZM102.04 228V227.019C101.547 227.79 100.822 228.176 99.8647 228.176C99.2446 228.176 98.6733 228.005 98.1509 227.663C97.6333 227.321 97.2305 226.845 96.9424 226.235C96.6592 225.62 96.5176 224.914 96.5176 224.118C96.5176 223.342 96.647 222.639 96.9058 222.009C97.1646 221.374 97.5527 220.888 98.0703 220.551C98.5879 220.214 99.1665 220.046 99.8062 220.046C100.275 220.046 100.692 220.146 101.059 220.346C101.425 220.542 101.723 220.798 101.952 221.115V217.263H103.263V228H102.04ZM97.8726 224.118C97.8726 225.114 98.0825 225.859 98.5024 226.352C98.9224 226.845 99.418 227.092 99.9893 227.092C100.565 227.092 101.054 226.857 101.454 226.389C101.859 225.915 102.062 225.195 102.062 224.228C102.062 223.164 101.857 222.382 101.447 221.884C101.037 221.386 100.531 221.137 99.9307 221.137C99.3447 221.137 98.854 221.376 98.4585 221.855C98.0679 222.333 97.8726 223.088 97.8726 224.118ZM110.441 228V226.857C109.835 227.736 109.013 228.176 107.973 228.176C107.514 228.176 107.084 228.088 106.684 227.912C106.288 227.736 105.993 227.517 105.797 227.253C105.607 226.984 105.473 226.657 105.395 226.271C105.341 226.013 105.314 225.603 105.314 225.041V220.222H106.632V224.536C106.632 225.224 106.659 225.688 106.713 225.927C106.796 226.274 106.972 226.547 107.24 226.748C107.509 226.943 107.841 227.041 108.236 227.041C108.632 227.041 109.003 226.94 109.35 226.74C109.696 226.535 109.94 226.259 110.082 225.913C110.229 225.561 110.302 225.053 110.302 224.389V220.222H111.62V228H110.441ZM113.664 228V217.263H114.982V228H113.664ZM119.911 226.821L120.102 227.985C119.73 228.063 119.398 228.103 119.105 228.103C118.627 228.103 118.256 228.027 117.992 227.875C117.729 227.724 117.543 227.526 117.436 227.282C117.328 227.033 117.274 226.513 117.274 225.722V221.247H116.308V220.222H117.274V218.295L118.585 217.504V220.222H119.911V221.247H118.585V225.795C118.585 226.171 118.607 226.413 118.651 226.521C118.7 226.628 118.776 226.713 118.878 226.777C118.986 226.84 119.137 226.872 119.333 226.872C119.479 226.872 119.672 226.855 119.911 226.821Z" fill="#757575"/>
</g>
<g filter="url(#filter11_d)">
<circle cx="628" cy="209" r="20" fill="#C4C4C4"/>
</g>
<g filter="url(#filter12_d)">
<circle cx="39" cy="211" r="20" fill="#C4C4C4"/>
</g>
<path d="M43 205L37 211L43 217" stroke="#838383" stroke-width="2" stroke-linecap="round" stroke-linejoin="round"/>
<path d="M626 215L632 209L626 203" stroke="#838383" stroke-width="2" stroke-linecap="round" stroke-linejoin="round"/>
<defs>
<filter id="filter0_d" x="0" y="0" width="851" height="242" filterUnits="userSpaceOnUse" color-interpolation-filters="sRGB">
<feFlood flood-opacity="0" result="BackgroundImageFix"/>
<feColorMatrix in="SourceAlpha" type="matrix" values="0 0 0 0 0 0 0 0 0 0 0 0 0 0 0 0 0 0 127 0"/>
<feOffset dx="1" dy="1"/>
<feGaussianBlur stdDeviation="3.5"/>
<feColorMatrix type="matrix" values="0 0 0 0 0 0 0 0 0 0 0 0 0 0 0 0 0 0 0.25 0"/>
<feBlend mode="normal" in2="BackgroundImageFix" result="effect1_dropShadow"/>
<feBlend mode="normal" in="SourceGraphic" in2="effect1_dropShadow" result="shape"/>
</filter>
<filter id="filter1_dd" x="277.5" y="69.4999" width="169" height="163.1" filterUnits="userSpaceOnUse" color-interpolation-filters="sRGB">
<feFlood flood-opacity="0" result="BackgroundImageFix"/>
<feColorMatrix in="SourceAlpha" type="matrix" values="0 0 0 0 0 0 0 0 0 0 0 0 0 0 0 0 0 0 127 0"/>
<feOffset dx="1" dy="1"/>
<feGaussianBlur stdDeviation="3.5"/>
<feColorMatrix type="matrix" values="0 0 0 0 0 0 0 0 0 0 0 0 0 0 0 0 0 0 0.25 0"/>
<feBlend mode="normal" in2="BackgroundImageFix" result="effect1_dropShadow"/>
<feColorMatrix in="SourceAlpha" type="matrix" values="0 0 0 0 0 0 0 0 0 0 0 0 0 0 0 0 0 0 127 0"/>
<feOffset dx="1" dy="1"/>
<feGaussianBlur stdDeviation="3.5"/>
<feColorMatrix type="matrix" values="0 0 0 0 0 0 0 0 0 0 0 0 0 0 0 0 0 0 0.25 0"/>
<feBlend mode="normal" in2="effect1_dropShadow" result="effect2_dropShadow"/>
<feBlend mode="normal" in="SourceGraphic" in2="effect2_dropShadow" result="shape"/>
</filter>
<filter id="filter2_dd" x="448.667" y="119.5" width="119.833" height="116.1" filterUnits="userSpaceOnUse" color-interpolation-filters="sRGB">
<feFlood flood-opacity="0" result="BackgroundImageFix"/>
<feColorMatrix in="SourceAlpha" type="matrix" values="0 0 0 0 0 0 0 0 0 0 0 0 0 0 0 0 0 0 127 0"/>
<feOffset dx="1" dy="1"/>
<feGaussianBlur stdDeviation="3.5"/>
<feColorMatrix type="matrix" values="0 0 0 0 0 0 0 0 0 0 0 0 0 0 0 0 0 0 0.25 0"/>
<feBlend mode="normal" in2="BackgroundImageFix" result="effect1_dropShadow"/>
<feColorMatrix in="SourceAlpha" type="matrix" values="0 0 0 0 0 0 0 0 0 0 0 0 0 0 0 0 0 0 127 0"/>
<feOffset dx="1" dy="1"/>
<feGaussianBlur stdDeviation="3.5"/>
<feColorMatrix type="matrix" values="0 0 0 0 0 0 0 0 0 0 0 0 0 0 0 0 0 0 0.25 0"/>
<feBlend mode="normal" in2="effect1_dropShadow" result="effect2_dropShadow"/>
<feBlend mode="normal" in="SourceGraphic" in2="effect2_dropShadow" result="shape"/>
</filter>
<filter id="filter3_d" x="368.903" y="75.7639" width="73.3639" height="75.6377" filterUnits="userSpaceOnUse" color-interpolation-filters="sRGB">
<feFlood flood-opacity="0" result="BackgroundImageFix"/>
<feColorMatrix in="SourceAlpha" type="matrix" values="0 0 0 0 0 0 0 0 0 0 0 0 0 0 0 0 0 0 127 0"/>
<feOffset dx="1" dy="1"/>
<feGaussianBlur stdDeviation="3.5"/>
<feColorMatrix type="matrix" values="0 0 0 0 0 0 0 0 0 0 0 0 0 0 0 0 0 0 0.25 0"/>
<feBlend mode="normal" in2="BackgroundImageFix" result="effect1_dropShadow"/>
<feBlend mode="normal" in="SourceGraphic" in2="effect1_dropShadow" result="shape"/>
</filter>
<filter id="filter4_d" x="510.78" y="123.659" width="54.6262" height="56.1823" filterUnits="userSpaceOnUse" color-interpolation-filters="sRGB">
<feFlood flood-opacity="0" result="BackgroundImageFix"/>
<feColorMatrix in="SourceAlpha" type="matrix" values="0 0 0 0 0 0 0 0 0 0 0 0 0 0 0 0 0 0 127 0"/>
<feOffset dx="1" dy="1"/>
<feGaussianBlur stdDeviation="3.5"/>
<feColorMatrix type="matrix" values="0 0 0 0 0 0 0 0 0 0 0 0 0 0 0 0 0 0 0.25 0"/>
<feBlend mode="normal" in2="BackgroundImageFix" result="effect1_dropShadow"/>
<feBlend mode="normal" in="SourceGraphic" in2="effect1_dropShadow" result="shape"/>
</filter>
<filter id="filter5_dd" x="67.5006" y="19.4999" width="224.999" height="216.099" filterUnits="userSpaceOnUse" color-interpolation-filters="sRGB">
<feFlood flood-opacity="0" result="BackgroundImageFix"/>
<feColorMatrix in="SourceAlpha" type="matrix" values="0 0 0 0 0 0 0 0 0 0 0 0 0 0 0 0 0 0 127 0"/>
<feOffset dx="1" dy="1"/>
<feGaussianBlur stdDeviation="3.5"/>
<feColorMatrix type="matrix" values="0 0 0 0 0 0 0 0 0 0 0 0 0 0 0 0 0 0 0.25 0"/>
<feBlend mode="normal" in2="BackgroundImageFix" result="effect1_dropShadow"/>
<feColorMatrix in="SourceAlpha" type="matrix" values="0 0 0 0 0 0 0 0 0 0 0 0 0 0 0 0 0 0 127 0"/>
<feOffset dx="1" dy="1"/>
<feGaussianBlur stdDeviation="3.5"/>
<feColorMatrix type="matrix" values="0 0 0 0 0 0 0 0 0 0 0 0 0 0 0 0 0 0 0.25 0"/>
<feBlend mode="normal" in2="effect1_dropShadow" result="effect2_dropShadow"/>
<feBlend mode="normal" in="SourceGraphic" in2="effect2_dropShadow" result="shape"/>
</filter>
<filter id="filter6_d" x="204.546" y="31.0798" width="80.713" height="84.8639" filterUnits="userSpaceOnUse" color-interpolation-filters="sRGB">
<feFlood flood-opacity="0" result="BackgroundImageFix"/>
<feColorMatrix in="SourceAlpha" type="matrix" values="0 0 0 0 0 0 0 0 0 0 0 0 0 0 0 0 0 0 127 0"/>
<feOffset dx="1" dy="1"/>
<feGaussianBlur stdDeviation="3.5"/>
<feColorMatrix type="matrix" values="0 0 0 0 0 0 0 0 0 0 0 0 0 0 0 0 0 0 0.25 0"/>
<feBlend mode="normal" in2="BackgroundImageFix" result="effect1_dropShadow"/>
<feBlend mode="normal" in="SourceGraphic" in2="effect1_dropShadow" result="shape"/>
</filter>
<filter id="filter7_d" x="169.219" y="177.032" width="35.8067" height="38.6656" filterUnits="userSpaceOnUse" color-interpolation-filters="sRGB">
<feFlood flood-opacity="0" result="BackgroundImageFix"/>
<feColorMatrix in="SourceAlpha" type="matrix" values="0 0 0 0 0 0 0 0 0 0 0 0 0 0 0 0 0 0 127 0"/>
<feOffset dy="4"/>
<feGaussianBlur stdDeviation="2"/>
<feColorMatrix type="matrix" values="0 0 0 0 0 0 0 0 0 0 0 0 0 0 0 0 0 0 0.25 0"/>
<feBlend mode="normal" in2="BackgroundImageFix" result="effect1_dropShadow"/>
<feBlend mode="normal" in="SourceGraphic" in2="effect1_dropShadow" result="shape"/>
</filter>
<filter id="filter8_d" x="345.87" y="187.176" width="29.3898" height="31.5889" filterUnits="userSpaceOnUse" color-interpolation-filters="sRGB">
<feFlood flood-opacity="0" result="BackgroundImageFix"/>
<feColorMatrix in="SourceAlpha" type="matrix" values="0 0 0 0 0 0 0 0 0 0 0 0 0 0 0 0 0 0 127 0"/>
<feOffset dy="4"/>
<feGaussianBlur stdDeviation="2"/>
<feColorMatrix type="matrix" values="0 0 0 0 0 0 0 0 0 0 0 0 0 0 0 0 0 0 0.25 0"/>
<feBlend mode="normal" in2="BackgroundImageFix" result="effect1_dropShadow"/>
<feBlend mode="normal" in="SourceGraphic" in2="effect1_dropShadow" result="shape"/>
</filter>
<filter id="filter9_d" x="495.924" y="196.927" width="25.1118" height="26.8711" filterUnits="userSpaceOnUse" color-interpolation-filters="sRGB">
<feFlood flood-opacity="0" result="BackgroundImageFix"/>
<feColorMatrix in="SourceAlpha" type="matrix" values="0 0 0 0 0 0 0 0 0 0 0 0 0 0 0 0 0 0 127 0"/>
<feOffset dy="4"/>
<feGaussianBlur stdDeviation="2"/>
<feColorMatrix type="matrix" values="0 0 0 0 0 0 0 0 0 0 0 0 0 0 0 0 0 0 0.25 0"/>
<feBlend mode="normal" in2="BackgroundImageFix" result="effect1_dropShadow"/>
<feBlend mode="normal" in="SourceGraphic" in2="effect1_dropShadow" result="shape"/>
</filter>
<filter id="filter10_d" x="81.978" y="217.263" width="42.1235" height="18.9131" filterUnits="userSpaceOnUse" color-interpolation-filters="sRGB">
<feFlood flood-opacity="0" result="BackgroundImageFix"/>
<feColorMatrix in="SourceAlpha" type="matrix" values="0 0 0 0 0 0 0 0 0 0 0 0 0 0 0 0 0 0 127 0"/>
<feOffset dy="4"/>
<feGaussianBlur stdDeviation="2"/>
<feColorMatrix type="matrix" values="0 0 0 0 0 0 0 0 0 0 0 0 0 0 0 0 0 0 0.25 0"/>
<feBlend mode="normal" in2="BackgroundImageFix" result="effect1_dropShadow"/>
<feBlend mode="normal" in="SourceGraphic" in2="effect1_dropShadow" result="shape"/>
</filter>
<filter id="filter11_d" x="602" y="183" width="54" height="54" filterUnits="userSpaceOnUse" color-interpolation-filters="sRGB">
<feFlood flood-opacity="0" result="BackgroundImageFix"/>
<feColorMatrix in="SourceAlpha" type="matrix" values="0 0 0 0 0 0 0 0 0 0 0 0 0 0 0 0 0 0 127 0"/>
<feOffset dx="1" dy="1"/>
<feGaussianBlur stdDeviation="3.5"/>
<feColorMatrix type="matrix" values="0 0 0 0 0 0 0 0 0 0 0 0 0 0 0 0 0 0 0.25 0"/>
<feBlend mode="normal" in2="BackgroundImageFix" result="effect1_dropShadow"/>
<feBlend mode="normal" in="SourceGraphic" in2="effect1_dropShadow" result="shape"/>
</filter>
<filter id="filter12_d" x="13" y="185" width="54" height="54" filterUnits="userSpaceOnUse" color-interpolation-filters="sRGB">
<feFlood flood-opacity="0" result="BackgroundImageFix"/>
<feColorMatrix in="SourceAlpha" type="matrix" values="0 0 0 0 0 0 0 0 0 0 0 0 0 0 0 0 0 0 127 0"/>
<feOffset dx="1" dy="1"/>
<feGaussianBlur stdDeviation="3.5"/>
<feColorMatrix type="matrix" values="0 0 0 0 0 0 0 0 0 0 0 0 0 0 0 0 0 0 0.25 0"/>
<feBlend mode="normal" in2="BackgroundImageFix" result="effect1_dropShadow"/>
<feBlend mode="normal" in="SourceGraphic" in2="effect1_dropShadow" result="shape"/>
</filter>
</defs>
</svg>
