<svg width="71" height="40" viewBox="0 0 71 40" fill="none" xmlns="http://www.w3.org/2000/svg">
<g filter="url(#filter0_d)">
<path d="M5 25.5V4L36.5 1L66.5 4V25.5L36.5 31L5 25.5Z" fill="#757575"/>
<path d="M5 25.5V4L36.5 1L66.5 4V25.5L36.5 31L5 25.5Z" stroke="white"/>
</g>
<rect x="7" y="6" width="2.96296" height="2.90909" rx="1.45455" fill="#361643"/>
<rect x="7" y="10.0727" width="2.96296" height="2.90909" rx="1.45455" fill="white"/>
<rect x="11.1481" y="6" width="2.96296" height="2.90909" rx="1.45455" fill="white"/>
<rect x="11.1481" y="10.0727" width="2.96296" height="2.90909" rx="1.45455" fill="#361643"/>
<rect x="11.1481" y="14.1454" width="2.96296" height="2.90909" rx="1.45455" fill="white"/>
<rect x="15.2963" y="6" width="2.96296" height="2.90909" rx="1.45455" fill="#361643"/>
<rect x="15.2963" y="10.0727" width="2.96296" height="2.90909" rx="1.45455" fill="white"/>
<rect x="15.2963" y="14.1454" width="2.96296" height="2.90909" rx="1.45455" fill="#361643"/>
<rect x="19.2182" y="6" width="2.96296" height="2.90909" rx="1.45455" fill="white"/>
<rect x="19.2182" y="10.0727" width="2.96296" height="2.90909" rx="1.45455" fill="#361643"/>
<rect x="19.2182" y="14.1454" width="2.96296" height="2.90909" rx="1.45455" fill="white"/>
<rect x="23.8727" y="6" width="2.96296" height="2.90909" rx="1.45455" fill="#361643"/>
<rect x="23.8727" y="10.0727" width="2.96296" height="2.90909" rx="1.45455" fill="white"/>
<rect x="23.8727" y="14.1454" width="2.96296" height="2.90909" rx="1.45455" fill="#361643"/>
<rect x="27.7407" y="6" width="2.96296" height="2.90909" rx="1.45455" fill="white"/>
<rect x="27.7407" y="10.0727" width="2.96296" height="2.90909" rx="1.45455" fill="#361643"/>
<rect x="27.7407" y="14.1454" width="2.96296" height="2.90909" rx="1.45455" fill="white"/>
<rect x="31.8889" y="6" width="2.96296" height="2.90909" rx="1.45455" fill="#361643"/>
<rect x="31.8889" y="10.0727" width="2.96296" height="2.90909" rx="1.45455" fill="white"/>
<rect x="31.8889" y="14.1454" width="2.96296" height="2.90909" rx="1.45455" fill="#361643"/>
<rect x="36.037" y="6" width="2.96296" height="2.90909" rx="1.45455" fill="white"/>
<rect x="36.037" y="10.0727" width="2.96296" height="2.90909" rx="1.45455" fill="#361643"/>
<rect x="7" y="14" width="2.96296" height="2.90909" rx="1.45455" fill="#361643"/>
<rect x="7" y="18.0727" width="2.96296" height="2.90909" rx="1.45455" fill="white"/>
<rect x="11.1481" y="14" width="2.96296" height="2.90909" rx="1.45455" fill="white"/>
<rect x="11.1481" y="18.0727" width="2.96296" height="2.90909" rx="1.45455" fill="#361643"/>
<rect x="11.1481" y="22.1454" width="2.96296" height="2.90909" rx="1.45455" fill="white"/>
<rect x="15.2963" y="14" width="2.96296" height="2.90909" rx="1.45455" fill="#361643"/>
<rect x="15.2963" y="18.0727" width="2.96296" height="2.90909" rx="1.45455" fill="white"/>
<rect x="15.2963" y="22.1454" width="2.96296" height="2.90909" rx="1.45455" fill="#361643"/>
<rect x="19.2182" y="14" width="2.96296" height="2.90909" rx="1.45455" fill="white"/>
<rect x="19.2182" y="18.0727" width="2.96296" height="2.90909" rx="1.45455" fill="#361643"/>
<rect x="19.2182" y="22.1454" width="2.96296" height="2.90909" rx="1.45455" fill="white"/>
<rect x="23.8727" y="14" width="2.96296" height="2.90909" rx="1.45455" fill="#361643"/>
<rect x="23.8727" y="18.0727" width="2.96296" height="2.90909" rx="1.45455" fill="white"/>
<rect x="23.8727" y="22.1454" width="2.96296" height="2.90909" rx="1.45455" fill="#361643"/>
<rect x="27.7407" y="14" width="2.96296" height="2.90909" rx="1.45455" fill="white"/>
<rect x="27.7407" y="18.0727" width="2.96296" height="2.90909" rx="1.45455" fill="#361643"/>
<rect x="27.7407" y="22.1454" width="2.96296" height="2.90909" rx="1.45455" fill="white"/>
<rect x="31.8889" y="14" width="2.96296" height="2.90909" rx="1.45455" fill="#361643"/>
<rect x="31.8889" y="18.0727" width="2.96296" height="2.90909" rx="1.45455" fill="white"/>
<rect x="31.8889" y="22.1454" width="2.96296" height="2.90909" rx="1.45455" fill="#361643"/>
<rect x="36.037" y="14" width="2.96296" height="2.90909" rx="1.45455" fill="white"/>
<rect x="36.037" y="18.0727" width="2.96296" height="2.90909" rx="1.45455" fill="#361643"/>
<rect x="32" y="6" width="2.96296" height="2.90909" rx="1.45455" fill="#361643"/>
<rect x="32" y="10.0727" width="2.96296" height="2.90909" rx="1.45455" fill="white"/>
<rect x="36.1481" y="6" width="2.96296" height="2.90909" rx="1.45455" fill="white"/>
<rect x="36.1481" y="10.0727" width="2.96296" height="2.90909" rx="1.45455" fill="#361643"/>
<rect x="36.1481" y="14.1454" width="2.96296" height="2.90909" rx="1.45455" fill="white"/>
<rect x="40.2963" y="6" width="2.96296" height="2.90909" rx="1.45455" fill="#361643"/>
<rect x="40.2963" y="10.0727" width="2.96296" height="2.90909" rx="1.45455" fill="white"/>
<rect x="40.2963" y="14.1454" width="2.96296" height="2.90909" rx="1.45455" fill="#361643"/>
<rect x="44.2182" y="6" width="2.96296" height="2.90909" rx="1.45455" fill="white"/>
<rect x="44.2182" y="10.0727" width="2.96296" height="2.90909" rx="1.45455" fill="#361643"/>
<rect x="44.2182" y="14.1454" width="2.96296" height="2.90909" rx="1.45455" fill="white"/>
<rect x="48.8727" y="6" width="2.96296" height="2.90909" rx="1.45455" fill="#361643"/>
<rect x="48.8727" y="10.0727" width="2.96296" height="2.90909" rx="1.45455" fill="white"/>
<rect x="48.8727" y="14.1454" width="2.96296" height="2.90909" rx="1.45455" fill="#361643"/>
<rect x="52.7407" y="6" width="2.96296" height="2.90909" rx="1.45455" fill="white"/>
<rect x="52.7407" y="10.0727" width="2.96296" height="2.90909" rx="1.45455" fill="#361643"/>
<rect x="52.7407" y="14.1454" width="2.96296" height="2.90909" rx="1.45455" fill="white"/>
<rect x="56.8889" y="6" width="2.96296" height="2.90909" rx="1.45455" fill="#361643"/>
<rect x="56.8889" y="10.0727" width="2.96296" height="2.90909" rx="1.45455" fill="white"/>
<rect x="56.8889" y="14.1454" width="2.96296" height="2.90909" rx="1.45455" fill="#361643"/>
<rect x="61.037" y="6" width="2.96296" height="2.90909" rx="1.45455" fill="white"/>
<rect x="61.037" y="10.0727" width="2.96296" height="2.90909" rx="1.45455" fill="#361643"/>
<rect x="32" y="14" width="2.96296" height="2.90909" rx="1.45455" fill="#361643"/>
<rect x="32" y="18.0727" width="2.96296" height="2.90909" rx="1.45455" fill="white"/>
<rect x="36.1481" y="14" width="2.96296" height="2.90909" rx="1.45455" fill="white"/>
<rect x="36.1481" y="18.0727" width="2.96296" height="2.90909" rx="1.45455" fill="#361643"/>
<rect x="36.1481" y="22.1454" width="2.96296" height="2.90909" rx="1.45455" fill="white"/>
<rect x="40.2963" y="14" width="2.96296" height="2.90909" rx="1.45455" fill="#361643"/>
<rect x="40.2963" y="18.0727" width="2.96296" height="2.90909" rx="1.45455" fill="white"/>
<rect x="40.2963" y="22.1454" width="2.96296" height="2.90909" rx="1.45455" fill="#361643"/>
<rect x="44.2182" y="14" width="2.96296" height="2.90909" rx="1.45455" fill="white"/>
<rect x="44.2182" y="18.0727" width="2.96296" height="2.90909" rx="1.45455" fill="#361643"/>
<rect x="44.2182" y="22.1454" width="2.96296" height="2.90909" rx="1.45455" fill="white"/>
<rect x="48.8727" y="14" width="2.96296" height="2.90909" rx="1.45455" fill="#361643"/>
<rect x="48.8727" y="18.0727" width="2.96296" height="2.90909" rx="1.45455" fill="white"/>
<rect x="48.8727" y="22.1454" width="2.96296" height="2.90909" rx="1.45455" fill="#361643"/>
<rect x="52.7407" y="14" width="2.96296" height="2.90909" rx="1.45455" fill="white"/>
<rect x="52.7407" y="18.0727" width="2.96296" height="2.90909" rx="1.45455" fill="#361643"/>
<rect x="52.7407" y="22.1454" width="2.96296" height="2.90909" rx="1.45455" fill="white"/>
<rect x="56.8889" y="14" width="2.96296" height="2.90909" rx="1.45455" fill="#361643"/>
<rect x="56.8889" y="18.0727" width="2.96296" height="2.90909" rx="1.45455" fill="white"/>
<rect x="56.8889" y="22.1454" width="2.96296" height="2.90909" rx="1.45455" fill="#361643"/>
<rect x="61.037" y="14" width="2.96296" height="2.90909" rx="1.45455" fill="white"/>
<rect x="61.037" y="18.0727" width="2.96296" height="2.90909" rx="1.45455" fill="#361643"/>
<defs>
<filter id="filter0_d" x="0.5" y="0.49762" width="70.5" height="39.0103" filterUnits="userSpaceOnUse" color-interpolation-filters="sRGB">
<feFlood flood-opacity="0" result="BackgroundImageFix"/>
<feColorMatrix in="SourceAlpha" type="matrix" values="0 0 0 0 0 0 0 0 0 0 0 0 0 0 0 0 0 0 127 0"/>
<feOffset dy="4"/>
<feGaussianBlur stdDeviation="2"/>
<feColorMatrix type="matrix" values="0 0 0 0 0 0 0 0 0 0 0 0 0 0 0 0 0 0 0.25 0"/>
<feBlend mode="normal" in2="BackgroundImageFix" result="effect1_dropShadow"/>
<feBlend mode="normal" in="SourceGraphic" in2="effect1_dropShadow" result="shape"/>
</filter>
</defs>
</svg>
