<svg width="35" height="45" viewBox="0 0 35 45" fill="none" xmlns="http://www.w3.org/2000/svg">
<path d="M0.836746 1.60025L0.753789 0.18986C-0.131095 1.05779 -0.0573534 2.08846 0.0901276 2.4953L0.836746 5.93991C0.504916 7.26893 0.818311 10.3338 1.25154 12.5308C-0.164277 19.8397 2.13642 26.2625 3.46374 28.5604C3.35313 33.9415 9.44592 39.2649 12.5061 41.2539C13.9883 41.319 16.018 43.7763 16.8476 44.9968C19.5686 45.0836 21.4656 43.3695 22.0739 42.5015C24.0207 41.3732 25.7056 39.8073 26.3048 39.1654C28.2681 37.8364 30.425 32.4932 30.508 31.6253C30.5743 30.9309 31.1993 29.2927 31.5035 28.5604C31.8132 26.9547 32.4897 26.1012 32.8308 25.7396L32.9414 24.8988L33.1073 24.6276L33.2456 21.8339L33.3838 19.637L33.5221 16.9247L33.6604 12.0697C33.4834 11.2885 33.8078 9.46588 33.9922 8.65219C34.0475 7.947 34.1249 6.41727 33.9922 5.93991C33.8595 5.46254 34.2318 4.42103 34.4346 3.95994C34.6835 3.35419 35.137 1.97454 34.96 1.3019C34.7831 0.62925 34.3517 0.153696 34.1581 0V1.79011C33.8631 2.07038 33.2456 2.65804 33.135 2.76653C33.0244 2.87502 32.0934 3.31803 31.6417 3.52597L30.0102 4.12267L27.4662 4.82787L25.4752 5.42457L24.1202 5.83142L22.2122 6.45524L19.9723 6.97058L17.9813 7.13331H14.9396L13.0592 6.97058L11.7872 6.59086L8.82834 5.6958L6.56083 4.82787L4.68046 4.12267L2.57886 3.2005C2.25625 3.01968 1.53912 2.60922 1.25154 2.41393C0.963948 2.21865 0.855181 1.79011 0.836746 1.60025Z" fill="#5C4E5F"/>
<circle cx="6.5" cy="11.5" r="1.5" fill="white"/>
<circle cx="5.5" cy="19.5" r="1.5" fill="white"/>
<circle cx="8.5" cy="23.5" r="1.5" fill="white"/>
<circle cx="12.5" cy="27.5" r="1.5" fill="white"/>
<circle cx="18" cy="31" r="2" fill="white"/>
<circle cx="22.5" cy="27.5" r="1.5" fill="white"/>
<circle cx="26.5" cy="23.5" r="1.5" fill="white"/>
<circle cx="29.5" cy="19.5" r="1.5" fill="white"/>
<circle cx="11.5" cy="11.5" r="1.5" fill="white"/>
<circle cx="16.5" cy="11.5" r="1.5" fill="white"/>
<circle cx="21.5" cy="11.5" r="1.5" fill="white"/>
<circle cx="26.5" cy="11.5" r="1.5" fill="white"/>
<path d="M18 29C15.6545 28.2182 4.99929 18.9355 1.24982 9.64688C1.12193 9.33006 1.34668 8.98976 1.6882 8.97991C13.1826 8.64855 33.892 8.21591 33.5 9C33.1 9.8 26 24.5 18 29Z" stroke="white" stroke-width="0.5"/>
<path d="M18 34.4418C15.6545 33.66 4.99929 24.3773 1.24982 15.0887C1.12193 14.7718 1.34668 14.4315 1.6882 14.4217C13.1826 14.0903 33.892 13.6577 33.5 14.4418C33.1 15.2418 26 29.9417 18 34.4418Z" stroke="white" stroke-width="0.5"/>
</svg>
