<svg width="355" height="349" viewBox="0 0 355 349" fill="none" xmlns="http://www.w3.org/2000/svg">
<path d="M272.132 245.044C248.253 228.483 233.126 190.598 228.548 173.726C226.782 181.169 214.359 195.273 178.8 192.152C143.241 189.03 103.853 181.169 88.6042 177.628C27.3602 215.693 6.48828 213.432 3.70781 207.543C3.17223 219.505 5.5067 232.784 8.8731 245.044C13.12 260.512 19.0092 274.358 22.8501 281.896C104.718 362.427 126.023 353.973 190.372 327.093C241.85 305.589 266.328 263.434 272.132 245.044Z" fill="white"/>
<path d="M354 3.55949C332.839 0.235643 294.648 10.1494 311.173 76.3951C311.714 80.7306 303.603 93.6936 266.832 110.862C230.062 128.03 225.989 159.925 228.548 173.726M228.548 173.726C233.126 190.598 248.253 228.483 272.132 245.044M228.548 173.726C226.782 181.169 214.359 195.273 178.8 192.152C143.241 189.03 103.853 181.169 88.6042 177.628C27.3602 215.693 6.48828 213.432 3.70781 207.543M272.132 245.044C283.127 246.056 307.258 238.736 315.824 201.365C326.53 154.65 291.274 172.209 344.807 130.046C349.638 124.988 356.401 112.401 344.807 102.516M272.132 245.044C266.328 263.434 241.85 305.589 190.372 327.093C126.023 353.973 104.718 362.427 22.8501 281.896M22.8501 281.896C19.0092 274.358 13.12 260.512 8.87309 245.044M22.8501 281.896C58.2365 298.34 153.188 311.698 221.784 272.232M3.70781 207.543C1.90534 199.052 2.43166 180.403 18.9567 173.726C39.613 165.38 35.0708 178.278 68.7049 151.507C102.339 124.735 70.1108 176.111 136.73 145.437C190.026 120.899 192.102 102.48 186.478 96.3382M3.70781 207.543C3.17223 219.505 5.5067 232.784 8.87309 245.044M8.87309 245.044C36.1154 264.813 114.371 292.488 209.455 245.044" stroke="#361643" stroke-width="5"/>
</svg>
